<svg viewBox="0 0 97 22" xmlns="http://www.w3.org/2000/svg">
<path d="M27.6007 3.74121H38.5953C42.9405 3.74121 45.42 6.10631 45.42 9.95385C45.42 13.8014 42.9405 16.2668 38.5953 16.2668H32.2538V22H27.6007V3.74121ZM32.2538 12.5195H36.5236C39.4129 12.5195 40.7689 12.0421 40.7689 10.0301C40.7689 8.01804 39.5924 7.49046 36.8315 7.49046H32.2558V12.5195H32.2538Z"/>
<path d="M48.3032 3.74121H60.2929C64.4607 3.74121 66.5569 5.24974 66.5569 8.29487C66.5569 10.0562 65.6882 11.4644 64.0264 12.2929C66.1735 12.9709 67.2481 14.5075 67.2481 16.7944C67.2481 19.9378 65.0745 22 61.2411 22H48.3053V3.74121H48.3032ZM52.9564 11.0592H58.4537C60.6518 11.0592 61.6998 10.7322 61.6998 9.17351C61.6998 7.76528 60.6783 7.48845 58.4537 7.48845H52.9564V11.0592ZM52.9564 18.2527H59.1449C61.343 18.2527 62.3911 18.0261 62.3911 16.3651C62.3911 14.8064 61.3695 14.2527 59.1449 14.2527H52.9564V18.2507V18.2527Z"/>
<path d="M85.3937 3.74121V5.55265H87.2859C91.6332 5.55265 97 7.2377 97 12.6961C97 17.5486 92.8077 19.8134 87.2084 19.8134H85.3916V22.002H80.7385V19.8134H78.8728C73.2735 19.8134 69.1322 17.5486 69.1322 12.6961C69.1322 7.2377 74.4766 5.55265 78.8218 5.55265H80.7385V3.74121H85.3916H85.3937ZM80.7406 8.99898H79.3601C76.5992 8.99898 73.7874 10.004 73.7874 12.7462C73.7874 15.2858 76.6237 16.3671 79.3866 16.3671H80.7406V8.99898ZM85.3937 16.3671H86.7762C89.537 16.3671 92.3489 15.336 92.3489 12.7964C92.3489 10.0541 89.537 8.99898 86.7762 8.99898H85.3937V16.3671Z"/>
<path d="M15.1665 3.74329L0 12.8626V3.74329H15.1665Z"/>
<path d="M6.54945 15.5326C8.22352 17.1795 9.25732 19.4543 9.2614 21.9659H0V12.8625C2.31229 12.8625 4.42883 13.6971 6.05192 15.0772C6.2232 15.2216 6.38837 15.3741 6.54741 15.5306L6.54945 15.5326Z"/>
<path d="M18.5228 7.0752V21.9659H9.2818L18.5228 7.0752Z"/>
<path d="M22.1197 0.212638C21.9851 0.0802407 21.7996 0 21.5957 0C21.4346 0 21.2837 0.0521565 21.1613 0.138415H21.1593L21.1511 0.144433L15.1665 3.74323H18.5248V7.07523L22.2114 1.13541L22.2216 1.11936L22.2339 1.1013C22.3012 0.992979 22.3379 0.864594 22.3379 0.728185C22.3379 0.527583 22.2543 0.345035 22.1217 0.212638H22.1197Z"/>
</svg>
