<?xml version="1.0" standalone="no"?>
<!DOCTYPE svg PUBLIC "-//W3C//DTD SVG 1.1//EN" "http://www.w3.org/Graphics/SVG/1.1/DTD/svg11.dtd">
<svg xmlns="http://www.w3.org/2000/svg">
<metadata>Copyright (C) 2023 by original authors @ fontello.com</metadata>
<defs>
<font id="fontello" horiz-adv-x="1000" >
<font-face font-family="fontello" font-weight="400" font-stretch="normal" units-per-em="1000" ascent="850" descent="-150" />
<missing-glyph horiz-adv-x="1000" />
<glyph glyph-name="align-alt" unicode="&#xe800;" d="M417 392h-292a42 42 0 0 1 0-84h292a42 42 0 0 1 0 84z m0-334h-292a42 42 0 0 1 0-83h292a42 42 0 0 1 0 83z m166 584h292a42 42 0 0 1 0 83h-292a42 42 0 0 1 0-83z m-166-84h-292a42 42 0 0 1 0-83h292a42 42 0 0 1 0 83z m0-333h-292a42 42 0 0 1 0-83h292a42 42 0 0 1 0 83z m0 500h-125a42 42 0 0 1 0-83h125a42 42 0 0 1 0 83z m458-167h-292a42 42 0 0 1 0-83h292a42 42 0 0 1 0 83z m0-166h-292a42 42 0 0 1 0-84h292a42 42 0 0 1 0 84z m-167-334h-125a42 42 0 0 1 0-83h125a42 42 0 0 1 0 83z m167 167h-292a42 42 0 0 1 0-83h292a42 42 0 0 1 0 83z" horiz-adv-x="1000" />

<glyph glyph-name="align-center-alt" unicode="&#xe801;" d="M208 517h584a42 42 0 0 1 0 83h-584a42 42 0 0 1 0-83z m667-125h-750a42 42 0 0 1 0-84h750a42 42 0 0 1 0 84z m-83-209h-584a42 42 0 0 1 0-83h584a42 42 0 0 1 0 83z" horiz-adv-x="1000" />

<glyph glyph-name="align-center-h" unicode="&#xe802;" d="M913 366a42 42 0 0 1-8 14l-105 104a42 42 0 0 1-59-59l34-33h-108a42 42 0 0 1 0-84h108l-34-33a42 42 0 0 1 0-59 42 42 0 0 1 59 0l105 104a42 42 0 0 1 8 14 42 42 0 0 1 0 32z m-580 26h-108l34 33a42 42 0 0 1-59 59l-105-104a42 42 0 0 1-8-14 42 42 0 0 1 0-32 42 42 0 0 1 8-14l105-104a42 42 0 0 1 59 0 42 42 0 0 1 0 59l-34 33h108a42 42 0 0 1 0 84z m167 166a42 42 0 0 1-42-41v-334a42 42 0 0 1 84 0v334a42 42 0 0 1-42 41z" horiz-adv-x="1000" />

<glyph glyph-name="align-center-v" unicode="&#xe803;" d="M425 591l33 34v-108a42 42 0 0 1 84 0v108l33-34a42 42 0 0 1 59 0 42 42 0 0 1 0 59l-104 105a42 42 0 0 1-14 8 42 42 0 0 1-32 0 42 42 0 0 1-14-8l-104-105a42 42 0 0 1 59-59z m242-199h-334a42 42 0 0 1 0-84h334a42 42 0 0 1 0 84z m-92-283l-33-34v108a42 42 0 0 1-84 0v-108l-33 34a42 42 0 0 1-59-59l104-105a42 42 0 0 1 14-8 39 39 0 0 1 32 0 42 42 0 0 1 14 8l104 105a42 42 0 0 1-59 59z" horiz-adv-x="1000" />

<glyph glyph-name="angle-double-down" unicode="&#xe804;" d="M470 373a42 42 0 0 1 60 0l125 125a42 42 0 1 1-60 60l-95-97-95 97a42 42 0 1 1-60-60z m125-45l-95-96-95 96a42 42 0 0 1-60-61l125-125a42 42 0 0 1 60 0l125 125a42 42 0 0 1-60 59z" horiz-adv-x="1000" />

<glyph glyph-name="angle-double-left" unicode="&#xe805;" d="M478 505a42 42 0 0 1-60 0l-125-125a42 42 0 0 1 0-60l125-125a42 42 0 0 1 60 0 42 42 0 0 1 0 60l-96 95 96 95a42 42 0 0 1 0 60z m133-155l97 95a42 42 0 0 1-59 60l-125-125a42 42 0 0 1 0-60l125-125a42 42 0 0 1 59 0 42 42 0 0 1 0 60z" horiz-adv-x="1000" />

<glyph glyph-name="angle-double-right" unicode="&#xe806;" d="M353 505a42 42 0 1 1-61-60l97-95-97-95a42 42 0 0 1 0-60 42 42 0 0 1 59 0l125 125a42 42 0 0 1 0 60z m354-125l-125 125a42 42 0 0 1-59-60l95-95-95-95a42 42 0 0 1 0-60 42 42 0 0 1 59 0l125 125a42 42 0 0 1 1 60z" horiz-adv-x="1000" />

<glyph glyph-name="angle-double-up" unicode="&#xe807;" d="M530 328a42 42 0 0 1-60 0l-125-125a42 42 0 0 1 60-61l95 97 95-97a42 42 0 0 1 60 0 42 42 0 0 1 0 59z m-125 45l95 95 95-95a42 42 0 0 1 60 0 42 42 0 0 1 0 59l-125 125a42 42 0 0 1-60 0l-125-125a42 42 0 0 1 60-59z" horiz-adv-x="1000" />

<glyph glyph-name="angle-down" unicode="&#xe808;" d="M708 468a42 42 0 0 1-58 0l-150-148-147 148a42 42 0 0 1-59 0 42 42 0 0 1 0-59l176-177a42 42 0 0 1 60 0l178 177a42 42 0 0 1 0 59z" horiz-adv-x="1000" />

<glyph glyph-name="angle-left-b" unicode="&#xe809;" d="M354 317l238-234c16-16 41-16 58 0 0 0 0 0 0 0 17 17 17 42 0 59l-204 208 204 208c17 17 17 42 0 59-8 8-17 12-29 12-13 0-21-4-29-12l-238-234c-16-20-16-45 0-66 0 4 0 4 0 0z" horiz-adv-x="1000" />

<glyph glyph-name="angle-left" unicode="&#xe80a;" d="M470 350l148 148a42 42 0 0 1 0 58 42 42 0 0 1-59 0l-177-176a42 42 0 0 1 0-60l177-178a42 42 0 0 1 29-12 42 42 0 0 1 30 12 42 42 0 0 1 0 58z" horiz-adv-x="1000" />

<glyph glyph-name="angle-right-b" unicode="&#xe80b;" d="M648 380l-236 235a42 42 0 0 1-59 0 42 42 0 0 1 0-59l206-208-206-206a42 42 0 0 1 0-59 42 42 0 0 1 29-13 42 42 0 0 1 30 13l236 235a42 42 0 0 1 0 62z" horiz-adv-x="1000" />

<glyph glyph-name="angle-right" unicode="&#xe80c;" d="M618 380l-177 176a42 42 0 0 1-59 0 42 42 0 0 1 0-58l148-148-148-147a42 42 0 0 1 0-59 42 42 0 0 1 30-12 42 42 0 0 1 29 12l177 176a42 42 0 0 1 0 60z" horiz-adv-x="1000" />

<glyph glyph-name="angle-up" unicode="&#xe80d;" d="M708 291l-178 177a42 42 0 0 1-60 0l-176-177a42 42 0 0 1 0-59 42 42 0 0 1 59 0l147 148 148-148a42 42 0 0 1 29-12 42 42 0 0 1 29 12 42 42 0 0 1 2 59z" horiz-adv-x="1000" />

<glyph glyph-name="angry" unicode="&#xe80e;" d="M417 392a42 42 0 0 1 37 23 42 42 0 0 1-19 55l-83 42a42 42 0 1 1-37-74l83-42a39 39 0 0 1 19-4z m83 375a417 417 0 1 1 417-417 417 417 0 0 1-417 417z m0-750a333 333 0 1 0 333 333 333 333 0 0 0-333-333z m-152 194a42 42 0 0 1-5-58 42 42 0 0 1 59-5 157 157 0 0 0 196 0 42 42 0 0 1 27-10 42 42 0 0 1 27 73 242 242 0 0 1-304 0z m300 301l-83-42a42 42 0 0 1-19-55 42 42 0 0 1 37-23 39 39 0 0 1 19 4l83 42a42 42 0 0 1-37 74z" horiz-adv-x="1000" />

<glyph glyph-name="annoyed-alt" unicode="&#xe80f;" d="M611 285l-175-62a42 42 0 0 1 14-81 42 42 0 0 1 14 2l175 63a42 42 0 1 1-28 78z m-167 208a42 42 0 0 1-59 0 42 42 0 0 0-59 0 42 42 0 0 1-58 0 42 42 0 0 1 0-59 125 125 0 0 1 176 0 42 42 0 0 1-1 60z m292 0a42 42 0 0 1-59 0 42 42 0 0 0-59 0 42 42 0 0 1-59 0 42 42 0 0 1 0-59 125 125 0 0 1 177 0 42 42 0 0 1-2 60z m-236 274a417 417 0 1 1 417-417 417 417 0 0 1-417 417z m0-750a333 333 0 1 0 333 333 333 333 0 0 0-333-333z" horiz-adv-x="1000" />

<glyph glyph-name="annoyed" unicode="&#xe810;" d="M375 475a42 42 0 1 1 42-42 42 42 0 0 1-42 42z m250-167a208 208 0 0 1-182-107 42 42 0 0 1 15-56 42 42 0 0 1 21-6 42 42 0 0 1 36 21 125 125 0 0 0 110 65 42 42 0 0 1 0 83z m0 167a42 42 0 1 1 42-42 42 42 0 0 1-42 42z m-125 292a417 417 0 1 1 417-417 417 417 0 0 1-417 417z m0-750a333 333 0 1 0 333 333 333 333 0 0 0-333-333z" horiz-adv-x="1000" />

<glyph glyph-name="apps" unicode="&#xe811;" d="M417 308h-292a42 42 0 0 1-42-41v-292a42 42 0 0 1 42-42h292a42 42 0 0 1 41 42v292a42 42 0 0 1-41 41z m-42-291h-208v208h208z m500 750h-292a42 42 0 0 1-41-42v-292a42 42 0 0 1 41-41h292a42 42 0 0 1 42 41v292a42 42 0 0 1-42 42z m-42-292h-208v208h208z m42-167h-292a42 42 0 0 1-41-41v-292a42 42 0 0 1 41-42h292a42 42 0 0 1 42 42v292a42 42 0 0 1-42 41z m-42-291h-208v208h208z m-416 750h-292a42 42 0 0 1-42-42v-292a42 42 0 0 1 42-41h292a42 42 0 0 1 41 41v292a42 42 0 0 1-41 42z m-42-292h-208v208h208z" horiz-adv-x="1000" />

<glyph glyph-name="archive-alt" unicode="&#xe812;" d="M417 308h166a42 42 0 0 1 0 84h-166a42 42 0 0 1 0-84z m375 417h-584a125 125 0 0 1-41-242v-383a125 125 0 0 1 125-125h416a125 125 0 0 1 125 125v383a125 125 0 0 1-41 242z m-42-625a42 42 0 0 0-42-42h-416a42 42 0 0 0-42 42v375h500z m42 458h-584a42 42 0 0 0 0 84h584a42 42 0 0 0 0-84z" horiz-adv-x="1000" />

<glyph glyph-name="archive" unicode="&#xe813;" d="M417 267h166a42 42 0 0 1 0 83h-166a42 42 0 0 1 0-83z m375 458h-584a125 125 0 0 1-125-125v-125a42 42 0 0 1 42-42h42v-333a125 125 0 0 1 125-125h416a125 125 0 0 1 125 125v333h42a42 42 0 0 1 42 42v125a125 125 0 0 1-125 125z m-42-625a42 42 0 0 0-42-42h-416a42 42 0 0 0-42 42v333h500z m83 417h-666v83a42 42 0 0 0 41 42h584a42 42 0 0 0 41-42z" horiz-adv-x="1000" />

<glyph glyph-name="arrow-break" unicode="&#xe814;" d="M292 392h416a42 42 0 0 1 0 83h-166v150l33-34a42 42 0 0 1 59 0 42 42 0 0 1 0 59l-104 105a42 42 0 0 1-14 8 42 42 0 0 1-32 0 42 42 0 0 1-14-8l-104-105a42 42 0 0 1 59-59l33 34v-150h-166a42 42 0 0 1 0-83z m416-84h-416a42 42 0 0 1 0-83h166v-150l-33 34a42 42 0 0 1-59-59l104-105a42 42 0 0 1 14-8 39 39 0 0 1 32 0 42 42 0 0 1 14 8l104 105a42 42 0 0 1-59 59l-33-34v150h166a42 42 0 0 1 0 83z" horiz-adv-x="1000" />

<glyph glyph-name="arrow-circle-down" unicode="&#xe815;" d="M470 195a42 42 0 0 1 14-8 42 42 0 0 1 32 0 42 42 0 0 1 14 8l125 125a42 42 0 0 1-60 60l-53-55v150a42 42 0 0 1-84 0v-150l-53 55a42 42 0 0 1-60 0 42 42 0 0 1 0-60z m30-262a417 417 0 1 1-417 417 417 417 0 0 1 417-417z m0 750a333 333 0 1 0-333-333 333 333 0 0 0 333 333z" horiz-adv-x="1000" />

<glyph glyph-name="arrow-circle-left" unicode="&#xe816;" d="M345 380a42 42 0 0 1-8-14 42 42 0 0 1 0-32 42 42 0 0 1 8-14l125-125a42 42 0 0 1 60 60l-55 53h150a42 42 0 0 1 0 84h-150l55 53a42 42 0 0 1 0 60 42 42 0 0 1-60 0z m-262-30a417 417 0 1 1 417 417 417 417 0 0 1-417-417z m750 0a333 333 0 1 0-333 333 333 333 0 0 0 333-333z" horiz-adv-x="1000" />

<glyph glyph-name="arrow-circle-right" unicode="&#xe817;" d="M655 320a42 42 0 0 1 8 14 42 42 0 0 1 0 32 42 42 0 0 1-8 14l-125 125a42 42 0 0 1-60-60l55-53h-150a42 42 0 0 1 0-84h150l-55-53a42 42 0 0 1 0-60 42 42 0 0 1 60 0z m262 30a417 417 0 1 1-417-417 417 417 0 0 1 417 417z m-750 0a333 333 0 1 0 333-333 333 333 0 0 0-333 333z" horiz-adv-x="1000" />

<glyph glyph-name="arrow-circle-up" unicode="&#xe818;" d="M530 505a42 42 0 0 1-14 8 42 42 0 0 1-32 0 42 42 0 0 1-14-8l-125-125a42 42 0 0 1 60-60l53 55v-150a42 42 0 0 1 84 0v150l53-55a42 42 0 0 1 60 0 42 42 0 0 1 0 60z m-30 262a417 417 0 1 1 417-417 417 417 0 0 1-417 417z m0-750a333 333 0 1 0 333 333 333 333 0 0 0-333-333z" horiz-adv-x="1000" />

<glyph glyph-name="arrow-compress-h" unicode="&#xe819;" d="M500 642a42 42 0 0 1-42-42v-500a42 42 0 0 1 84 0v500a42 42 0 0 1-42 42z m-54-262l-104 104a42 42 0 1 1-59-59l33-33h-191a42 42 0 0 1 0-84h191l-33-33a42 42 0 0 1 0-59 42 42 0 0 1 59 0l104 104a42 42 0 0 1 9 14 39 39 0 0 1 0 32 42 42 0 0 1-9 14z m429 12h-191l33 33a42 42 0 0 1-59 59l-104-104a42 42 0 0 1 0-60l104-104a42 42 0 0 1 59 0 42 42 0 0 1 0 59l-33 33h191a42 42 0 0 1 0 84z" horiz-adv-x="1000" />

<glyph glyph-name="arrow-down-left" unicode="&#xe81a;" d="M708 183h-316l346 346a42 42 0 1 1-59 59l-346-346v316a42 42 0 0 1-83 0v-416a42 42 0 0 1 3-16 42 42 0 0 1 23-23 42 42 0 0 1 16-3h416a42 42 0 0 1 0 83z" horiz-adv-x="1000" />

<glyph glyph-name="arrow-down-right" unicode="&#xe81b;" d="M708 600a42 42 0 0 1-41-42v-316l-346 346a42 42 0 0 1-59-59l346-346h-316a42 42 0 0 1 0-83h416a42 42 0 0 1 16 3 42 42 0 0 1 23 23 42 42 0 0 1 3 16v416a42 42 0 0 1-42 42z" horiz-adv-x="1000" />

<glyph glyph-name="arrow-down" unicode="&#xe81c;" d="M738 380a42 42 0 0 1-59 0l-137-138v316a42 42 0 0 1-84 0v-316l-137 138a42 42 0 0 1-59-60l208-208a42 42 0 0 1 14-9 39 39 0 0 1 32 0 42 42 0 0 1 14 9l208 208a42 42 0 0 1 0 60z" horiz-adv-x="1000" />

<glyph glyph-name="arrow-from-right" unicode="&#xe81d;" d="M125 683a42 42 0 0 1-42-41v-584a42 42 0 0 1 84 0v584a42 42 0 0 1-42 41z m788-317a42 42 0 0 1-8 14l-167 166a42 42 0 1 1-59-59l96-95h-483a42 42 0 0 1 0-84h483l-96-95a42 42 0 0 1 0-59 42 42 0 0 1 59 0l167 166a42 42 0 0 1 8 14 42 42 0 0 1 0 32z" horiz-adv-x="1000" />

<glyph glyph-name="arrow-from-top" unicode="&#xe81e;" d="M637 171l-95-96v483a42 42 0 0 1-84 0v-483l-95 96a42 42 0 1 1-59-59l166-167a42 42 0 0 1 14-8 39 39 0 0 1 32 0 42 42 0 0 1 14 8l166 167a42 42 0 0 1-59 59z m155 596h-584a42 42 0 0 1 0-84h584a42 42 0 0 1 0 84z" horiz-adv-x="1000" />

<glyph glyph-name="arrow-growth" unicode="&#xe81f;" d="M913 574a42 42 0 0 1-22 23 42 42 0 0 1-16 3h-208a42 42 0 0 1 0-83h108l-233-233-137 137a42 42 0 0 1-60 0l-250-250a42 42 0 0 1 0-59 42 42 0 0 1 60 0l220 221 137-138a42 42 0 0 1 59 0l262 263v-108a42 42 0 0 1 84 0v208a42 42 0 0 1-4 16z" horiz-adv-x="1000" />

<glyph glyph-name="arrow-left" unicode="&#xe820;" d="M708 392h-316l138 137a42 42 0 1 1-60 59l-208-208a42 42 0 0 1-9-14 42 42 0 0 1 0-32 42 42 0 0 1 9-14l208-208a42 42 0 0 1 60 0 42 42 0 0 1 0 59l-138 137h316a42 42 0 0 1 0 84z" horiz-adv-x="1000" />

<glyph glyph-name="arrow-random" unicode="&#xe821;" d="M363 433a42 42 0 0 1 58 0 42 42 0 0 1 0 59l-261 263a42 42 0 0 1-59-60z m512-166a42 42 0 0 1-42-42v-150l-190 192a42 42 0 0 1-60-60l192-190h-150a42 42 0 0 1 0-84h250a42 42 0 0 1 16 4 42 42 0 0 1 22 22 42 42 0 0 1 4 16v250a42 42 0 0 1-42 42z m38 474a42 42 0 0 1-22 22 42 42 0 0 1-16 4h-250a42 42 0 0 1 0-84h150l-680-678a42 42 0 0 1 0-60 42 42 0 0 1 60 0l678 680v-150a42 42 0 0 1 84 0v250a42 42 0 0 1-4 16z" horiz-adv-x="1000" />

<glyph glyph-name="arrow-resize-diagonal" unicode="&#xe822;" d="M913 741a42 42 0 0 1-22 22 42 42 0 0 1-16 4h-250a42 42 0 0 1 0-84h150l-608-608v150a42 42 0 0 1-84 0v-250a42 42 0 0 1 4-16 42 42 0 0 1 22-22 42 42 0 0 1 16-4h250a42 42 0 0 1 0 84h-150l608 608v-150a42 42 0 0 1 84 0v250a42 42 0 0 1-4 16z" horiz-adv-x="1000" />

<glyph glyph-name="arrow-right" unicode="&#xe823;" d="M747 366a42 42 0 0 1-9 14l-208 208a42 42 0 0 1-60-59l138-137h-316a42 42 0 0 1 0-84h316l-138-137a42 42 0 0 1 0-59 42 42 0 0 1 60 0l208 208a42 42 0 0 1 9 14 42 42 0 0 1 0 32z" horiz-adv-x="1000" />

<glyph glyph-name="arrow-to-bottom" unicode="&#xe824;" d="M792 17h-584a42 42 0 0 1 0-84h584a42 42 0 0 1 0 84z m-322 95a42 42 0 0 1 14-9 39 39 0 0 1 32 0 42 42 0 0 1 14 9l166 167a42 42 0 0 1-59 59l-95-96v483a42 42 0 0 1-84 0v-483l-95 96a42 42 0 1 1-59-59z" horiz-adv-x="1000" />

<glyph glyph-name="arrow-to-right" unicode="&#xe825;" d="M738 380l-167 166a42 42 0 1 1-59-59l96-95h-483a42 42 0 0 1 0-84h483l-96-95a42 42 0 0 1 0-59 42 42 0 0 1 59 0l167 166a42 42 0 0 1 9 14 42 42 0 0 1 0 32 42 42 0 0 1-9 14z m137 303a42 42 0 0 1-42-41v-584a42 42 0 0 1 84 0v584a42 42 0 0 1-42 41z" horiz-adv-x="1000" />

<glyph glyph-name="arrow-up-left" unicode="&#xe826;" d="M392 517h316a42 42 0 0 1 0 83h-416a42 42 0 0 1-16-3 42 42 0 0 1-23-23 42 42 0 0 1-3-16v-416a42 42 0 0 1 83 0v316l346-346a42 42 0 0 1 59 0 42 42 0 0 1 0 59z" horiz-adv-x="1000" />

<glyph glyph-name="arrow-up-right" unicode="&#xe827;" d="M747 574a42 42 0 0 1-23 23 42 42 0 0 1-16 3h-416a42 42 0 0 1 0-83h316l-346-346a42 42 0 0 1 0-59 42 42 0 0 1 59 0l346 346v-316a42 42 0 0 1 83 0v416a42 42 0 0 1-3 16z" horiz-adv-x="1000" />

<glyph glyph-name="arrow-up" unicode="&#xe828;" d="M738 380l-208 208a42 42 0 0 1-14 9 42 42 0 0 1-32 0 42 42 0 0 1-14-9l-208-208a42 42 0 0 1 59-60l137 138v-316a42 42 0 0 1 84 0v316l137-138a42 42 0 0 1 59 0 42 42 0 0 1 0 60z" horiz-adv-x="1000" />

<glyph glyph-name="arrow" unicode="&#xe829;" d="M405 588a42 42 0 0 1-60 0l-208-208a42 42 0 0 1 0-60l208-208a42 42 0 0 1 60 0 42 42 0 0 1 0 59l-180 179 180 179a42 42 0 0 1 0 59z m458-208l-208 208a42 42 0 0 1-60-59l180-179-180-179a42 42 0 0 1 0-59 42 42 0 0 1 60 0l208 208a42 42 0 0 1 0 60z" horiz-adv-x="1000" />

<glyph glyph-name="arrows-h-alt" unicode="&#xe82a;" d="M913 366a42 42 0 0 1-8 14l-105 104a42 42 0 0 1-59-59l34-33h-192a42 42 0 0 1 0-84h192l-34-33a42 42 0 0 1 0-59 42 42 0 0 1 59 0l105 104a42 42 0 0 1 8 14 42 42 0 0 1 0 32z m-496 26h-192l34 33a42 42 0 0 1-59 59l-105-104a42 42 0 0 1-8-14 42 42 0 0 1 0-32 42 42 0 0 1 8-14l105-104a42 42 0 0 1 59 0 42 42 0 0 1 0 59l-34 33h192a42 42 0 0 1 0 84z" horiz-adv-x="1000" />

<glyph glyph-name="arrows-h" unicode="&#xe82b;" d="M913 366a42 42 0 0 1-8 14l-167 166a42 42 0 1 1-59-59l96-95h-550l96 95a42 42 0 1 1-59 59l-167-166a42 42 0 0 1-8-14 42 42 0 0 1 0-32 42 42 0 0 1 8-14l167-166a42 42 0 0 1 59 0 42 42 0 0 1 0 59l-96 95h550l-96-95a42 42 0 0 1 0-59 42 42 0 0 1 59 0l167 166a42 42 0 0 1 8 14 42 42 0 0 1 0 32z" horiz-adv-x="1000" />

<glyph glyph-name="arrows-left-down" unicode="&#xe82c;" d="M905 171a42 42 0 0 1-60 0l-95-96v400a125 125 0 0 1-125 125h-400l96 95a42 42 0 0 1-59 60l-167-167a42 42 0 0 1-8-14 42 42 0 0 1 0-31 42 42 0 0 1 8-14l167-167a42 42 0 0 1 59 0 42 42 0 0 1 0 59l-96 96h400a42 42 0 0 0 42-42v-400l-96 96a42 42 0 0 1-59-59l167-167a42 42 0 0 1 14-8 39 39 0 0 1 31 0 42 42 0 0 1 14 8l167 167a42 42 0 0 1 0 59z" horiz-adv-x="1000" />

<glyph glyph-name="arrows-maximize" unicode="&#xe82d;" d="M875 267a42 42 0 0 1-42-42v-150l-608 608h150a42 42 0 0 1 0 84h-250a42 42 0 0 1-16-4 42 42 0 0 1-22-22 42 42 0 0 1-4-16v-250a42 42 0 0 1 84 0v150l608-608h-150a42 42 0 0 1 0-84h250a42 42 0 0 1 16 4 42 42 0 0 1 22 22 42 42 0 0 1 4 16v250a42 42 0 0 1-42 42z" horiz-adv-x="1000" />

<glyph glyph-name="arrows-merge" unicode="&#xe82e;" d="M446 380l-104 104a42 42 0 1 1-59-59l33-33h-149v166a42 42 0 0 1-84 0v-416a42 42 0 0 1 84 0v166h149l-33-33a42 42 0 0 1 0-59 42 42 0 0 1 59 0l104 104a42 42 0 0 1 9 14 42 42 0 0 1 0 32 42 42 0 0 1-9 14z m429 220a42 42 0 0 1-42-42v-166h-149l33 33a42 42 0 0 1-59 59l-104-104a42 42 0 0 1-9-14 42 42 0 0 1 0-32 42 42 0 0 1 9-14l104-104a42 42 0 0 1 59 0 42 42 0 0 1 0 59l-33 33h149v-166a42 42 0 0 1 84 0v416a42 42 0 0 1-42 42z" horiz-adv-x="1000" />

<glyph glyph-name="arrows-resize-h" unicode="&#xe82f;" d="M417 600a42 42 0 0 1-42-42v-166h-150l34 33a42 42 0 0 1-59 59l-105-104a42 42 0 0 1-8-14 42 42 0 0 1 0-32 42 42 0 0 1 8-14l105-104a42 42 0 0 1 59 0 42 42 0 0 1 0 59l-34 33h150v-166a42 42 0 0 1 83 0v416a42 42 0 0 1-41 42z m496-234a42 42 0 0 1-8 14l-105 104a42 42 0 0 1-59-59l34-33h-150v166a42 42 0 0 1-83 0v-416a42 42 0 0 1 83 0v166h150l-34-33a42 42 0 0 1 0-59 42 42 0 0 1 59 0l105 104a42 42 0 0 1 8 14 42 42 0 0 1 0 32z" horiz-adv-x="1000" />

<glyph glyph-name="arrows-resize-v" unicode="&#xe830;" d="M667 392h-125v233l33-34a42 42 0 0 1 59 0 42 42 0 0 1 0 59l-104 105a42 42 0 0 1-14 8 42 42 0 0 1-32 0 42 42 0 0 1-14-8l-104-105a42 42 0 0 1 59-59l33 34v-233h-125a42 42 0 0 1 0-84h125v-233l-33 34a42 42 0 0 1-59-59l104-105a42 42 0 0 1 14-8 39 39 0 0 1 32 0 42 42 0 0 1 14 8l104 105a42 42 0 0 1-59 59l-33-34v233h125a42 42 0 0 1 0 84z" horiz-adv-x="1000" />

<glyph glyph-name="arrows-resize" unicode="&#xe831;" d="M913 366a42 42 0 0 1-8 14l-105 104a42 42 0 0 1-59-59l34-33h-233v125a42 42 0 0 1-84 0v-125h-233l34 33a42 42 0 0 1-59 59l-105-104a42 42 0 0 1-8-14 42 42 0 0 1 0-32 42 42 0 0 1 8-14l105-104a42 42 0 0 1 59 0 42 42 0 0 1 0 59l-34 33h233v-125a42 42 0 0 1 84 0v125h233l-34-33a42 42 0 0 1 0-59 42 42 0 0 1 59 0l105 104a42 42 0 0 1 8 14 42 42 0 0 1 0 32z" horiz-adv-x="1000" />

<glyph glyph-name="arrows-right-down" unicode="&#xe832;" d="M872 574a42 42 0 0 1-9 14l-125 125a42 42 0 0 1-59-59l54-54h-358a125 125 0 0 1-125-125v-358l-54 54a42 42 0 0 1-59-59l125-125a42 42 0 0 1 14-9 39 39 0 0 1 32 0 42 42 0 0 1 13 9l125 125a42 42 0 0 1-59 59l-54-54v358a42 42 0 0 0 42 42h358l-54-54a42 42 0 0 1 0-59 42 42 0 0 1 59 0l125 125a42 42 0 0 1 9 14 42 42 0 0 1 0 31z" horiz-adv-x="1000" />

<glyph glyph-name="arrows-shrink-h" unicode="&#xe833;" d="M738 380l-104 104a42 42 0 0 1-59-59l33-33h-216l33 33a42 42 0 0 1-59 59l-104-104a42 42 0 0 1-9-14 42 42 0 0 1 0-32 42 42 0 0 1 9-14l104-104a42 42 0 0 1 59 0 42 42 0 0 1 0 59l-33 33h216l-33-33a42 42 0 0 1 0-59 42 42 0 0 1 59 0l104 104a42 42 0 0 1 9 14 42 42 0 0 1 0 32 42 42 0 0 1-9 14z m-613 220a42 42 0 0 1-42-42v-416a42 42 0 0 1 84 0v416a42 42 0 0 1-42 42z m750 0a42 42 0 0 1-42-42v-416a42 42 0 0 1 84 0v416a42 42 0 0 1-42 42z" horiz-adv-x="1000" />

<glyph glyph-name="arrows-shrink-v" unicode="&#xe834;" d="M575 425a42 42 0 0 1 59 0 42 42 0 0 1 0 59l-104 104a42 42 0 0 1-14 9 42 42 0 0 1-32 0 42 42 0 0 1-14-9l-104-104a42 42 0 0 1 59-59l33 33v-216l-33 33a42 42 0 0 1-59-59l104-104a42 42 0 0 1 14-9 39 39 0 0 1 32 0 42 42 0 0 1 14 9l104 104a42 42 0 0 1-59 59l-33-33v216z m-283 258h416a42 42 0 0 1 0 84h-416a42 42 0 0 1 0-84z m416-666h-416a42 42 0 0 1 0-84h416a42 42 0 0 1 0 84z" horiz-adv-x="1000" />

<glyph glyph-name="arrows-up-right" unicode="&#xe835;" d="M872 158a42 42 0 0 1-9 13l-125 125a42 42 0 0 1-59-59l54-54h-358a42 42 0 0 0-42 42v358l54-54a42 42 0 0 1 59 0 42 42 0 0 1 0 59l-125 125a42 42 0 0 1-13 9 42 42 0 0 1-32 0 42 42 0 0 1-14-9l-125-125a42 42 0 0 1 59-59l54 54v-358a125 125 0 0 1 125-125h358l-54-54a42 42 0 0 1 0-59 42 42 0 0 1 59 0l125 125a42 42 0 0 1 9 14 42 42 0 0 1 0 32z" horiz-adv-x="1000" />

<glyph glyph-name="arrows-v-alt" unicode="&#xe836;" d="M425 591l33 34v-192a42 42 0 0 1 84 0v192l33-34a42 42 0 0 1 59 0 42 42 0 0 1 0 59l-104 105a42 42 0 0 1-14 8 42 42 0 0 1-32 0 42 42 0 0 1-14-8l-104-105a42 42 0 0 1 59-59z m150-482l-33-34v192a42 42 0 0 1-84 0v-192l-33 34a42 42 0 0 1-59-59l104-105a42 42 0 0 1 14-8 39 39 0 0 1 32 0 42 42 0 0 1 14 8l104 105a42 42 0 0 1-59 59z" horiz-adv-x="1000" />

<glyph glyph-name="arrows-v" unicode="&#xe837;" d="M637 171l-95-96v550l95-96a42 42 0 0 1 59 0 42 42 0 0 1 0 59l-166 167a42 42 0 0 1-14 8 42 42 0 0 1-32 0 42 42 0 0 1-14-8l-166-167a42 42 0 1 1 59-59l95 96v-550l-95 96a42 42 0 1 1-59-59l166-167a42 42 0 0 1 14-8 39 39 0 0 1 32 0 42 42 0 0 1 14 8l166 167a42 42 0 0 1-59 59z" horiz-adv-x="1000" />

<glyph glyph-name="asterisk" unicode="&#xe838;" d="M773 240l-190 110 190 110a42 42 0 0 1-41 72l-190-110v220a42 42 0 0 1-84 0v-220l-190 110a42 42 0 0 1-41-72l190-110-190-110a42 42 0 0 1 41-72l190 110v-220a42 42 0 0 1 84 0v220l190-110a42 42 0 0 1 41 72z" horiz-adv-x="1000" />

<glyph glyph-name="at" unicode="&#xe839;" d="M500 767a417 417 0 1 1 208-778 42 42 0 1 1-41 72 333 333 0 1 0 166 289v-31a73 73 0 0 0-145 0v177a42 42 0 0 1-42 42 42 42 0 0 1-42-33 185 185 0 0 1-104 33 188 188 0 1 1 138-313 156 156 0 0 1 279 94v31a417 417 0 0 1-417 417z m0-521a104 104 0 1 0 104 104 104 104 0 0 0-104-104z" horiz-adv-x="1000" />

<glyph glyph-name="award-alt" unicode="&#xe83a;" d="M500 808a292 292 0 0 1-208-495v-380a42 42 0 0 1 60-37l148 74 148-74a42 42 0 0 1 19-4 42 42 0 0 1 22 6 42 42 0 0 1 19 35v380a292 292 0 0 1-208 495z m125-807l-106 53a42 42 0 0 1-38 0l-106-53v252a292 292 0 0 1 83-25v-45a42 42 0 0 1 84 0v45a292 292 0 0 1 83 25z m-125 307a208 208 0 1 0 208 209 208 208 0 0 0-208-209z" horiz-adv-x="1000" />

<glyph glyph-name="award" unicode="&#xe83b;" d="M870 131l-113 195a288 288 0 0 1 35 139 292 292 0 0 1-584 0 288 288 0 0 1 35-139l-113-195a42 42 0 0 1 37-62l119 0 61-103a42 42 0 0 1 8-9 42 42 0 0 1 28-12h6a42 42 0 0 1 31 21l80 138 80-139a42 42 0 0 1 31-20h6a42 42 0 0 1 29 11 36 36 0 0 1 7 9l61 103 119 0a42 42 0 0 1 37 20 42 42 0 0 1 0 43z m-487-63l-37 62a42 42 0 0 1-36 20l-72 0 60 103a292 292 0 0 1 149-76z m117 188a208 208 0 1 0 208 209 208 208 0 0 0-208-209z m190-106a42 42 0 0 1-36-20l-37-62-63 110a294 294 0 0 1 148 77l60-104z" horiz-adv-x="1000" />

<glyph glyph-name="backspace" unicode="&#xe83c;" d="M792 642h-382a125 125 0 0 1-89-37l-226-225a42 42 0 0 1 0-60l226-225a125 125 0 0 1 89-37h382a125 125 0 0 1 125 125v334a125 125 0 0 1-125 125z m41-459a42 42 0 0 0-41-41h-382a44 44 0 0 0-30 12l-196 196 196 196a44 44 0 0 0 30 12h382a42 42 0 0 0 41-41z m-137 280a42 42 0 0 1-59 0l-54-54-53 54a42 42 0 0 1-60-59l55-54-55-54a42 42 0 0 1 0-59 42 42 0 0 1 60 0l53 54 54-54a42 42 0 0 1 59 0 42 42 0 0 1 0 59l-54 54 54 54a42 42 0 0 1 0 59z" horiz-adv-x="1000" />

<glyph glyph-name="bag-alt" unicode="&#xe83d;" d="M792 579h-125v42a125 125 0 0 1-125 125h-84a125 125 0 0 1-125-125v-42h-125a125 125 0 0 1-125-125v-375a125 125 0 0 1 125-125h584a125 125 0 0 1 125 125v375a125 125 0 0 1-125 125z m-375 42a42 42 0 0 0 41 42h84a42 42 0 0 0 41-42v-42h-166z m416-542a42 42 0 0 0-41-41h-584a42 42 0 0 0-41 41v229a905 905 0 0 1 333-63 906 906 0 0 1 333 63z m0 321a829 829 0 0 0-666 0v54a42 42 0 0 0 41 42h584a42 42 0 0 0 41-42z" horiz-adv-x="1000" />

<glyph glyph-name="ban" unicode="&#xe83e;" d="M500 767a417 417 0 1 1 417-417 417 417 0 0 1-417 417z m0-750a333 333 0 0 0-333 333 330 330 0 0 0 70 204l467-467a330 330 0 0 0-204-70z m263 129l-467 467a330 330 0 0 0 204 70 333 333 0 0 0 333-333 330 330 0 0 0-70-204z" horiz-adv-x="1000" />

<glyph glyph-name="bars" unicode="&#xe83f;" d="M125 517h750a42 42 0 0 1 0 83h-750a42 42 0 0 1 0-83z m750-334h-750a42 42 0 0 1 0-83h750a42 42 0 0 1 0 83z m0 209h-750a42 42 0 0 1 0-84h750a42 42 0 0 1 0 84z" horiz-adv-x="1000" />

<glyph glyph-name="battery-bolt" unicode="&#xe840;" d="M279 225h-112v250h96a42 42 0 0 1 0 83h-96a83 83 0 0 1-84-83v-250a83 83 0 0 1 84-83h112a42 42 0 1 1 0 83z m300 107a53 53 0 0 1 2 7 59 59 0 0 1 0 9s0 0 0 2 0 3 0 5a27 27 0 0 1-2 8 37 37 0 0 1-3 7 36 36 0 0 1-4 7l-7 6-4 3-2 0-8 3-8 0h-138l61 104a42 42 0 1 1-73 42l-96-167s0 0 0-3a53 53 0 0 1-2-7 59 59 0 0 1 0-8s-3 0-3 0 0-3 0-5a27 27 0 0 1 2-8 37 37 0 0 1 3-7 36 36 0 0 1 4-7l7-5a32 32 0 0 1 4-4l3 0 3 0a42 42 0 0 1 15-6h137l-61-104a42 42 0 0 1 73-41l96 166s0 2 1 3z m296 101a42 42 0 0 1-42-41v-84a42 42 0 0 1 84 0v84a42 42 0 0 1-42 41z m-167 125h-112a42 42 0 0 1 0-83h112v-250h-96a42 42 0 1 1 0-83h96a83 83 0 0 1 84 83v250a83 83 0 0 1-84 83z" horiz-adv-x="1000" />

<glyph glyph-name="battery-empty" unicode="&#xe841;" d="M708 558h-541a83 83 0 0 1-84-83v-250a83 83 0 0 1 84-83h541a83 83 0 0 1 84 83v250a83 83 0 0 1-84 83z m0-333h-541v250h541z m167 208a42 42 0 0 1-42-41v-84a42 42 0 0 1 84 0v84a42 42 0 0 1-42 41z" horiz-adv-x="1000" />

<glyph glyph-name="bell-slash" unicode="&#xe842;" d="M461 595a145 145 0 0 0 39 5 167 167 0 0 0 167-167v-55a42 42 0 0 1 83 0v55a250 250 0 0 1-208 247v45a42 42 0 0 1-84 0v-46l-18-3a42 42 0 0 1 21-81z m444-590l-750 750a42 42 0 0 1-60-60l172-171a250 250 0 0 1-17-91v-132a125 125 0 0 1-83-118v-83a42 42 0 0 1 41-42h131a167 167 0 0 1 322 0h72l112-113a42 42 0 0 1 60 0 42 42 0 0 1 0 60z m-572 428a138 138 0 0 0 0 23l150-148h-150z m167-416a83 83 0 0 0-72 41h144a83 83 0 0 0-72-41z m-250 125v41a42 42 0 0 0 42 42h274l84-83z" horiz-adv-x="1000" />

<glyph glyph-name="bell" unicode="&#xe843;" d="M750 301v132a250 250 0 0 1-208 247v45a42 42 0 0 1-84 0v-45a250 250 0 0 1-208-247v-132a125 125 0 0 1-83-118v-83a42 42 0 0 1 41-42h131a167 167 0 0 1 322 0h131a42 42 0 0 1 41 42v83a125 125 0 0 1-83 118z m-417 132a167 167 0 0 0 334 0v-125h-334z m167-416a83 83 0 0 0-72 41h144a83 83 0 0 0-72-41z m250 125h-500v41a42 42 0 0 0 42 42h416a42 42 0 0 0 42-42z" horiz-adv-x="1000" />

<glyph glyph-name="bitcoin-alt" unicode="&#xe844;" d="M679 382a167 167 0 0 1-138 260v41a42 42 0 1 1-83 0v-41h-83v41a42 42 0 1 1-84 0v-41h-41a42 42 0 0 1 0-84h41v-416h-41a42 42 0 0 1 0-84h41v-41a42 42 0 0 1 84 0v41h83v-41a42 42 0 0 1 83 0v41h84a166 166 0 0 1 54 324z m-304 176h166a83 83 0 0 0 0-166h-166z m250-416h-250v166h250a83 83 0 1 0 0-166z" horiz-adv-x="1000" />

<glyph glyph-name="bitcoin" unicode="&#xe845;" d="M464 345l-25-100c31-8 125-39 139 18 15 59-83 74-114 82z m34 138l-23-92c26-6 105-32 117 19 14 54-69 66-94 73z m2 284a417 417 0 1 1 417-417 417 417 0 0 1-417 417z m182-358a73 73 0 0 0-58-67 81 81 0 0 0 41-111c-24-70-82-76-159-61l-19-76-45 11 19 75c-12 3-24 6-36 10l-19-76-45 12 19 76c-11 2-22 5-33 8l-58 15 22 52s33-9 33-8a16 16 0 0 1 21 11l50 206a24 24 0 0 1-21 26c1 1-33 8-33 8l12 49 63-15 0-1c9-2 19-4 29-7l18 76 45-12-18-73c12-3 24-6 36-9l18 73 46-11-19-75c57-20 99-50 91-106z" horiz-adv-x="1000" />

<glyph glyph-name="bluetooth-b" unicode="&#xe846;" d="M559 350l158 158a42 42 0 0 1 0 59l-187 188a42 42 0 0 1-14 8 42 42 0 0 1-32 0 42 42 0 0 1-22-22 42 42 0 0 1-4-16v-275l-116 117a42 42 0 1 1-59-59l158-158-158-158a42 42 0 1 1 59-59l116 117v-275a42 42 0 0 1 4-16 42 42 0 0 1 22-22 39 39 0 0 1 32 0 42 42 0 0 1 14 8l187 188a42 42 0 0 1 0 59z m-17 275l87-87-87-88z m0-550v175l87-87z" horiz-adv-x="1000" />

<glyph glyph-name="bolt-alt" unicode="&#xe847;" d="M829 452a42 42 0 0 1-37 23h-209v250a42 42 0 0 1-28 42 42 42 0 0 1-47-15l-333-459a42 42 0 0 1-4-41 42 42 0 0 1 37-27h209v-250a42 42 0 0 1 28-40 47 47 0 0 1 13-2 42 42 0 0 1 34 17l333 459a42 42 0 0 1 4 43z m-329-349v164a42 42 0 0 1-42 41h-166l208 289v-164a42 42 0 0 1 42-41h166z" horiz-adv-x="1000" />

<glyph glyph-name="bolt-slash" unicode="&#xe848;" d="M361 674a42 42 0 0 1 39 9h213l-53-197a42 42 0 0 1 7-36 42 42 0 0 1 33-17h150l-47-51a42 42 0 0 1 3-59 42 42 0 0 1 28-11 42 42 0 0 1 31 14l110 121a42 42 0 0 1-32 70h-189l54 197a42 42 0 0 1-7 36 42 42 0 0 1-34 17h-292a42 42 0 0 1-42-31l0-11a42 42 0 0 1 28-51z m542-669l-750 750a42 42 0 0 1-58-60l180-178-52-198a42 42 0 0 1 7-36 42 42 0 0 1 33-16h160l-75-281a42 42 0 0 1 20-48 42 42 0 0 1 20-5 42 42 0 0 1 31 14l202 223 224-225a42 42 0 0 1 60 0 42 42 0 0 1 0 60z m-585 345l26 98 97-98z m155-220l42 148 50-49z" horiz-adv-x="1000" />

<glyph glyph-name="bolt" unicode="&#xe849;" d="M828 492a42 42 0 0 1-36 25h-191l53 197a42 42 0 0 1-7 36 42 42 0 0 1-33 17h-292a42 42 0 0 1-42-31l-111-417a42 42 0 0 1 7-36 42 42 0 0 1 33-16h161l-75-281a42 42 0 0 1 71-39l454 500a42 42 0 0 1 8 45z m-408-362l45 167a42 42 0 0 1-7 36 42 42 0 0 1-33 16h-160l89 334h205l-53-197a42 42 0 0 1 42-53h149z" horiz-adv-x="1000" />

<glyph glyph-name="book-alt" unicode="&#xe84a;" d="M750 767h-417a167 167 0 0 1-166-167v-500a167 167 0 0 1 166-167h417a83 83 0 0 1 83 84v666a83 83 0 0 1-83 84z m-500-167a83 83 0 0 0 83 83h417v-416h-417a163 163 0 0 1-83-24z m83-583a83 83 0 0 0 0 166h417v-166z m84 500h166a42 42 0 0 1 0 83h-166a42 42 0 0 1 0-83z" horiz-adv-x="1000" />

<glyph glyph-name="book-open" unicode="&#xe84b;" d="M882 764a546 546 0 0 1-90 8 539 539 0 0 1-292-85 539 539 0 0 1-292 83 546 546 0 0 1-90-8 42 42 0 0 1-35-42v-500a42 42 0 0 1 49-41 454 454 0 0 0 344-80l5-3 4 0a38 38 0 0 1 30 0l4 0 5 3a454 454 0 0 0 344 84 42 42 0 0 1 49 42v500a42 42 0 0 1-35 39z m-424-554a536 536 0 0 1-250 62c-13 0-27 0-41 0v417a362 362 0 0 0 41 0 453 453 0 0 0 250-75z m375 60c-14 0-28 0-41 0a536 536 0 0 1-250-61v405a453 453 0 0 0 250 75 362 362 0 0 0 41 0z m49-172a546 546 0 0 1-90 7 539 539 0 0 1-292-85 539 539 0 0 1-292 85 546 546 0 0 1-90-7 42 42 0 0 1-35-48 42 42 0 0 1 49-33 454 454 0 0 0 344-80 42 42 0 0 1 48 0 454 454 0 0 0 344 80 42 42 0 0 1 49 33 42 42 0 0 1-35 48z" horiz-adv-x="1000" />

<glyph glyph-name="book-reader" unicode="&#xe84c;" d="M841 425a496 496 0 0 1-91 8c-17 0-35 0-52-3a246 246 0 0 1-79 69 159 159 0 0 1 41 107 161 161 0 0 1-321 0 159 159 0 0 1 41-107 255 255 0 0 1-79-69c-16 3-33 3-51 3a496 496 0 0 1-91-8 42 42 0 0 1-34-42v-344a42 42 0 0 1 15-32 42 42 0 0 1 34-9 406 406 0 0 0 76 9 412 412 0 0 0 227-68h0l0 0 6-2h0a45 45 0 0 1 17-4 36 36 0 0 1 12 2l3 0 5 2 0 0h0a412 412 0 0 0 230 70 406 406 0 0 0 76-7 42 42 0 0 1 34 9 42 42 0 0 1 15 32v344a42 42 0 0 1-34 40z m-341 258a78 78 0 0 0 0-154h0a78 78 0 0 0 0 154z m-42-638a497 497 0 0 1-208 45c-14 0-27 0-42-2v262a401 401 0 0 0 105-2l5 0a417 417 0 0 0 140-53z m42 322a490 490 0 0 1-57 28l-3 0c-14 5-27 11-42 15a167 167 0 0 0 102 36h0a167 167 0 0 0 102-35 518 518 0 0 1-102-44z m292-279a483 483 0 0 1-250-41v250a407 407 0 0 0 140 51l8 0a391 391 0 0 0 102 2z" horiz-adv-x="1000" />

<glyph glyph-name="bookmark-full" unicode="&#xe84d;" d="M750 767h-500a42 42 0 0 1-42-42v-750a42 42 0 0 1 69-32l223 187 220-185a42 42 0 0 1 30-12 35 35 0 0 1 16 4 42 42 0 0 1 26 38v750a42 42 0 0 1-42 42z m-42-703l-181 153a42 42 0 0 1-54 0l-181-153v619h416z" horiz-adv-x="1000" />

<glyph glyph-name="bookmark" unicode="&#xe84e;" d="M667 767h-334a125 125 0 0 1-125-125v-667a42 42 0 0 1 21-36 42 42 0 0 1 42 0l229 132 229-132a42 42 0 0 1 21-6 42 42 0 0 1 21 6 42 42 0 0 1 21 36v667a125 125 0 0 1-125 125z m41-720l-187 108a42 42 0 0 1-42 0l-187-108v595a42 42 0 0 0 41 41h334a42 42 0 0 0 41-41z" horiz-adv-x="1000" />

<glyph glyph-name="books" unicode="&#xe84f;" d="M936 66l-41 161h0l-132 483a42 42 0 0 1-50 29l-162-41a42 42 0 0 1-30 13h-417a42 42 0 0 1-41-41v-667a42 42 0 0 1 41-42h417a42 42 0 0 1 42 42v333l91-342a42 42 0 0 1 42-31 48 48 0 0 1 11 0l201 54a42 42 0 0 1 25 19 44 44 0 0 1 3 30z m-666-23h-125v83h125z m0 167h-125v250h125z m0 333h-125v83h125z m208-500h-125v83h125z m0 167h-125v250h125z m0 333h-125v83h125z m94 72l121 33 21-80-121-33z m108-402l-65 242 121 32 64-242z m41-161l-21 81 120 32 22-80z" horiz-adv-x="1000" />

<glyph glyph-name="box" unicode="&#xe850;" d="M854 537a8 8 0 0 0 0 3 7 7 0 0 0 0 3l0 4-3 6 0 0h0l0 0 0 0a20 20 0 0 1-3 5l-4 3h0l-2 0 0 0-164 104h0l-155 95a35 35 0 0 1-13 7h-3a34 34 0 0 1-11 0h-4a47 47 0 0 1-14-6l-311-193-4-3-4-4-4-3-2-2 0 0-3-6 0-4v-3a29 29 0 0 1 0-8v-364a42 42 0 0 1 20-35l313-194h0l0 0 6-2 3 0a36 36 0 0 1 22 0l3 0 6 2 0 0h0l310 191a42 42 0 0 1 20 35v364s1 3 1 5z m-354 139l74-46-233-144-74 46z m-42-625l-229 140v267l229-142z m42 338l-80 48 233 145 80-50z m271-196l-229-143v266l229 142z" horiz-adv-x="1000" />

<glyph glyph-name="briefcase-alt" unicode="&#xe851;" d="M792 579h-125v42a125 125 0 0 1-125 125h-84a125 125 0 0 1-125-125v-42h-125a125 125 0 0 1-125-125v-375a125 125 0 0 1 125-125h584a125 125 0 0 1 125 125v375a125 125 0 0 1-125 125z m-375 42a42 42 0 0 0 41 42h84a42 42 0 0 0 41-42v-42h-166z m416-542a42 42 0 0 0-41-41h-584a42 42 0 0 0-41 41v229a886 886 0 0 1 125-39v-24a42 42 0 0 1 83 0v8a958 958 0 0 1 125-8 958 958 0 0 1 125 8v-8a42 42 0 0 1 83 0v24a886 886 0 0 1 125 39z m0 321a850 850 0 0 0-125-42v13a42 42 0 0 1-83 0v-31a838 838 0 0 0-250 0v31a42 42 0 0 1-83 0v-14a850 850 0 0 0-125 42v55a42 42 0 0 0 41 42h584a42 42 0 0 0 41-42z" horiz-adv-x="1000" />

<glyph glyph-name="briefcase" unicode="&#xe852;" d="M875 600h-167v42a125 125 0 0 1-125 125h-166a125 125 0 0 1-125-125v-42h-167a42 42 0 0 1-42-42v-166a125 125 0 0 1 42-93v-241a125 125 0 0 1 125-125h500a125 125 0 0 1 125 125v241a125 125 0 0 1 42 93v166a42 42 0 0 1-42 42z m-500 42a42 42 0 0 0 42 41h166a42 42 0 0 0 42-41v-42h-250z m417-584a42 42 0 0 0-42-41h-500a42 42 0 0 0-42 41v209h84v-42a42 42 0 0 1 83 0v42h250v-42a42 42 0 0 1 83 0v42h84z m41 334a42 42 0 0 0-41-42h-84v42a42 42 0 0 1-83 0v-42h-250v42a42 42 0 0 1-83 0v-42h-84a42 42 0 0 0-41 42v125h666z" horiz-adv-x="1000" />

<glyph glyph-name="building" unicode="&#xe853;" d="M583 517h42a42 42 0 0 1 0 83h-42a42 42 0 0 1 0-83z m0-167h42a42 42 0 0 1 0 83h-42a42 42 0 0 1 0-83z m-208 167h42a42 42 0 0 1 0 83h-42a42 42 0 0 1 0-83z m0-167h42a42 42 0 0 1 0 83h-42a42 42 0 0 1 0-83z m500-333h-42v708a42 42 0 0 1-41 42h-584a42 42 0 0 1-41-42v-708h-42a42 42 0 0 1 0-84h750a42 42 0 0 1 0 84z m-333 0h-84v166h84z m208 0h-125v208a42 42 0 0 1-42 42h-166a42 42 0 0 1-42-42v-208h-125v666h500z" horiz-adv-x="1000" />

<glyph glyph-name="bus-alt" unicode="&#xe854;" d="M771 767h-500a125 125 0 0 1-125-125v-500a125 125 0 0 1 83-118v-49a42 42 0 0 1 84 0v42h416v-42a42 42 0 0 1 84 0v49a125 125 0 0 1 83 118v500a125 125 0 0 1-125 125z m-542-250h250v-167h-250z m584-375a42 42 0 0 0-42-42h-500a42 42 0 0 0-42 42v125h584z m0 208h-250v167h250z m0 250h-584v42a42 42 0 0 0 42 41h500a42 42 0 0 0 42-41z m-141-455a42 42 0 0 1 16-3 42 42 0 0 1 41 41 57 57 0 0 1 0 9 27 27 0 0 1-2 7 32 32 0 0 1-4 8 66 66 0 0 1-5 6l-6 5a32 32 0 0 1-8 4 27 27 0 0 1-8 3 42 42 0 0 1-38-11 66 66 0 0 1-5-6 32 32 0 0 1-4-8 27 27 0 0 1-2-7 57 57 0 0 1 0-9 42 42 0 0 1 12-29 42 42 0 0 1 13-10z m-334 0a42 42 0 0 1 16-3 42 42 0 0 1 42 41 57 57 0 0 1 0 9 27 27 0 0 1-3 7 32 32 0 0 1-3 8 66 66 0 0 1-5 6l-7 5-7 4-8 3a42 42 0 0 1-38-11 66 66 0 0 1-5-6 32 32 0 0 1-4-8 27 27 0 0 1-3-7 57 57 0 0 1 0-9 42 42 0 0 1 12-29 42 42 0 0 1 13-10z" horiz-adv-x="1000" />

<glyph glyph-name="bus-school" unicode="&#xe855;" d="M42 329v-166a42 42 0 0 1 41-42h42a125 125 0 0 1 250 0h250a125 125 0 0 1 250 0h42a42 42 0 0 1 41 42v416a125 125 0 0 1-125 125h-481a125 125 0 0 1-119-85l-60-180-113-75a42 42 0 0 1-18-35z m833 125h-83v167h41a42 42 0 0 0 42-42z m-167-333a42 42 0 1 0 42-42 42 42 0 0 0-42 42z m-83 250h250v-167h-32a125 125 0 0 1-185 0h-33z m0 250h83v-167h-83z m-167-250h84v-167h-84z m0 250h84v-167h-84z m-83-167h-109l46 139a42 42 0 0 0 40 28h23z m-167-333a42 42 0 1 0 42-42 42 42 0 0 0-42 42z m-83 187l96 63h154v-167h-32a125 125 0 0 1-185 0h-33z" horiz-adv-x="1000" />

<glyph glyph-name="bus" unicode="&#xe856;" d="M354 142a42 42 0 0 1 42 41 57 57 0 0 1 0 9 27 27 0 0 1-3 7 32 32 0 0 1-3 8l-5 6a42 42 0 0 1-14 9 42 42 0 0 1-25 3l-8-2-7-4a66 66 0 0 1-6-5l-5-6a32 32 0 0 1-4-8 27 27 0 0 1-3-7 57 57 0 0 1 0-9 42 42 0 0 1 42-41z m334 0a42 42 0 0 1 41 41 57 57 0 0 1 0 9 27 27 0 0 1-2 7 32 32 0 0 1-4 8l-5 6a48 48 0 0 1-14 9 42 42 0 0 1-31 0 48 48 0 0 1-14-9l-5-6a32 32 0 0 1-4-8 27 27 0 0 1-2-7 57 57 0 0 1 0-9 42 42 0 0 1 12-29 42 42 0 0 1 28-12z m-125 500h-84a42 42 0 0 1 0-84h84a42 42 0 0 1 0 84z m208 125h-500a125 125 0 0 1-125-125v-500a125 125 0 0 1 83-118v-49a42 42 0 0 1 84 0v42h416v-42a42 42 0 0 1 84 0v49a125 125 0 0 1 83 118v500a125 125 0 0 1-125 125z m42-625a42 42 0 0 0-42-42h-500a42 42 0 0 0-42 42v125h584z m0 208h-584v292a42 42 0 0 0 42 41h500a42 42 0 0 0 42-41z" horiz-adv-x="1000" />

<glyph glyph-name="calculator-alt" unicode="&#xe857;" d="M229 517h21v-21a42 42 0 0 1 83 0v21h21a42 42 0 0 1 0 83h-21v21a42 42 0 0 1-83 0v-21h-21a42 42 0 0 1 0-83z m-26-464a42 42 0 0 1 59 0l30 30 29-30a42 42 0 0 1 59 0 42 42 0 0 1 0 59l-30 30 30 29a42 42 0 0 1-59 59l-29-30-30 30a42 42 0 0 1-59-59l30-29-30-30a42 42 0 0 1 0-59z m630 755h-666a125 125 0 0 1-125-125v-666a125 125 0 0 1 125-125h666a125 125 0 0 1 125 125v666a125 125 0 0 1-125 125z m-375-833h-291a42 42 0 0 0-42 42v291h333z m0 417h-333v291a42 42 0 0 0 42 42h291z m417-375a42 42 0 0 0-42-42h-291v333h333z m0 375h-333v333h291a42 42 0 0 0 42-42z m-229-229h125a42 42 0 0 1 0 83h-125a42 42 0 0 1 0-83z m125 437h-125a42 42 0 0 1 0-83h125a42 42 0 0 1 0 83z m-125-562h125a42 42 0 0 1 0 83h-125a42 42 0 0 1 0-83z" horiz-adv-x="1000" />

<glyph glyph-name="calculator" unicode="&#xe858;" d="M530 130a42 42 0 0 1-7 5 23 23 0 0 1-7 3 25 25 0 0 1-8 3 39 39 0 0 1-24-3 38 38 0 0 1-22-22 35 35 0 0 1-4-16 42 42 0 0 1 3-16 61 61 0 0 1 9-14 42 42 0 0 1 30-12 35 35 0 0 1 16 4 48 48 0 0 1 14 8 42 42 0 0 1 12 30 42 42 0 0 1-4 16 42 42 0 0 1-8 14z m-174 171a23 23 0 0 1-7 4 25 25 0 0 1-8 3 36 36 0 0 1-16 0l-7-2-8-4-6-5a44 44 0 0 1-12-30 42 42 0 0 1 12-30 48 48 0 0 1 14-9 42 42 0 0 1 57 39 44 44 0 0 1-12 29z m7-171a42 42 0 0 1-14 8 42 42 0 0 1-24 4l-7-3a32 32 0 0 1-8-4 66 66 0 0 1-6-5 42 42 0 0 1-9-13 39 39 0 0 1 0-32 48 48 0 0 1 9-14 42 42 0 0 1 29-13 35 35 0 0 1 16 4 48 48 0 0 1 14 8 48 48 0 0 1 9 14 39 39 0 0 1 0 32 42 42 0 0 1-9 14z m121 175a42 42 0 0 1-14-9 44 44 0 0 1-12-29 42 42 0 0 1 58-39 48 48 0 0 1 14 9 42 42 0 0 1 12 30 44 44 0 0 1-12 29 42 42 0 0 1-46 9z m212-175a48 48 0 0 1-13 8 42 42 0 0 1-46-8 42 42 0 0 1-9-14 39 39 0 0 1 0-32 48 48 0 0 1 9-14 42 42 0 0 1 30-12 35 35 0 0 1 16 4 48 48 0 0 1 13 8 42 42 0 0 1 9 46 42 42 0 0 1-9 14z m-29 512h-334a42 42 0 0 1-41-42v-167a42 42 0 0 1 41-41h334a42 42 0 0 1 41 41v167a42 42 0 0 1-41 42z m-42-167h-250v83h250z m125 333h-500a125 125 0 0 1-125-125v-666a125 125 0 0 1 125-125h500a125 125 0 0 1 125 125v666a125 125 0 0 1-125 125z m42-791a42 42 0 0 0-42-42h-500a42 42 0 0 0-42 42v666a42 42 0 0 0 42 42h500a42 42 0 0 0 42-42z m-102 284a23 23 0 0 1-7 4 25 25 0 0 1-8 3 36 36 0 0 1-17 0l-7-3-8-4-6-5a44 44 0 0 1-12-29 42 42 0 0 1 58-39 48 48 0 0 1 13 9 42 42 0 0 1 12 30 44 44 0 0 1-12 29z" horiz-adv-x="1000" />

<glyph glyph-name="calendar-alt" unicode="&#xe859;" d="M500 58a42 42 0 1 1-42 42 42 42 0 0 1 42-42z m208 0a42 42 0 1 1-41 42 42 42 0 0 1 41-42z m0 167a42 42 0 1 1-41 42 42 42 0 0 1 41-42z m-208 0a42 42 0 1 1-42 42 42 42 0 0 1 42-42z m292 500h-42v42a42 42 0 0 1-83 0v-42h-334v42a42 42 0 0 1-83 0v-42h-42a125 125 0 0 1-125-125v-583a125 125 0 0 1 125-125h584a125 125 0 0 1 125 125v583a125 125 0 0 1-125 125z m41-708a42 42 0 0 0-41-42h-584a42 42 0 0 0-41 42v375h666z m0 458h-666v125a42 42 0 0 0 41 42h42v-42a42 42 0 0 1 83 0v42h334v-42a42 42 0 0 1 83 0v42h42a42 42 0 0 0 41-42z m-541-250a42 42 0 1 1-42 42 42 42 0 0 1 42-42z m0-167a42 42 0 1 1-42 42 42 42 0 0 1 42-42z" horiz-adv-x="1000" />

<glyph glyph-name="calender" unicode="&#xe85a;" d="M792 683h-84v42a42 42 0 0 1-83 0v-42h-250v42a42 42 0 0 1-83 0v-42h-84a125 125 0 0 1-125-125v-500a125 125 0 0 1 125-125h584a125 125 0 0 1 125 125v500a125 125 0 0 1-125 125z m41-625a42 42 0 0 0-41-41h-584a42 42 0 0 0-41 41v292h666z m0 375h-666v125a42 42 0 0 0 41 42h84v-42a42 42 0 0 1 83 0v42h250v-42a42 42 0 0 1 83 0v42h84a42 42 0 0 0 41-42z" horiz-adv-x="1000" />

<glyph glyph-name="camera-plus" unicode="&#xe85b;" d="M833 413a42 42 0 0 1-41-42v-292a42 42 0 0 0-42-41h-583a42 42 0 0 0-42 41v334a42 42 0 0 0 42 41h83a42 42 0 0 1 42 29l22 68a42 42 0 0 0 40 28h229a42 42 0 0 1 0 84h-231a125 125 0 0 1-119-86l-13-42h-53a125 125 0 0 1-125-125v-333a125 125 0 0 1 125-125h583a125 125 0 0 1 125 125v292a42 42 0 0 1-42 44z m-375 41a167 167 0 1 1 167-166 167 167 0 0 1-167 166z m0-250a83 83 0 1 0 84 84 83 83 0 0 0-84-84z m459 459h-42v41a42 42 0 0 1-83 0v-41h-42a42 42 0 0 1 0-84h42v-41a42 42 0 0 1 83 0v41h42a42 42 0 0 1 0 84z" horiz-adv-x="1000" />

<glyph glyph-name="camera" unicode="&#xe85c;" d="M792 579h-54l-13 42a125 125 0 0 1-118 83h-214a125 125 0 0 1-118-85l-13-42h-54a125 125 0 0 1-125-125v-333a125 125 0 0 1 125-125h584a125 125 0 0 1 125 125v333a125 125 0 0 1-125 127z m41-458a42 42 0 0 0-41-42h-584a42 42 0 0 0-41 42v333a42 42 0 0 0 41 42h84a42 42 0 0 1 41 28l23 69a42 42 0 0 0 39 28h214a42 42 0 0 0 39-28l23-69a42 42 0 0 1 37-28h84a42 42 0 0 0 41-42z m-333 375a167 167 0 1 1 167-167 167 167 0 0 1-167 167z m0-250a83 83 0 1 0 83 83 83 83 0 0 0-83-83z" horiz-adv-x="1000" />

<glyph glyph-name="cancel" unicode="&#xe85d;" d="M907 377l-208 250a42 42 0 0 1-32 15h-459a125 125 0 0 1-125-125v-334a125 125 0 0 1 125-125h459a42 42 0 0 1 32 15l208 250a42 42 0 0 1 0 54z m-260-235h-439a42 42 0 0 0-41 41v334a42 42 0 0 0 41 41h439l174-208z m-117 321a42 42 0 0 1-60 0l-53-54-54 54a42 42 0 1 1-59-59l54-54-54-54a42 42 0 0 1 0-59 42 42 0 0 1 59 0l54 54 53-54a42 42 0 0 1 60 0 42 42 0 0 1 0 59l-55 54 55 54a42 42 0 0 1 0 59z" horiz-adv-x="1000" />

<glyph glyph-name="car-sideview" unicode="&#xe85e;" d="M792 454h-14l-52 130a125 125 0 0 1-116 79h-250a125 125 0 0 1-122-101l-22-108h-8a125 125 0 0 1-125-125v-125a42 42 0 0 1 42-41h42a125 125 0 0 1 250 0h166a125 125 0 0 1 250 0h42a42 42 0 0 1 42 41v125a125 125 0 0 1-125 125z m-250 125h68a42 42 0 0 0 39-26l39-99h-146z m-223-33a42 42 0 0 0 42 33h97v-125h-157z m-27-425a42 42 0 1 0 41 42 42 42 0 0 0-41-42z m416 0a42 42 0 1 0 42 42 42 42 0 0 0-42-42z m125 125h-32a125 125 0 0 1-185 0h-232a125 125 0 0 1-185 0h-32v83a42 42 0 0 0 41 42h584a42 42 0 0 0 41-42z" horiz-adv-x="1000" />

<glyph glyph-name="car" unicode="&#xe85f;" d="M276 305a38 38 0 0 1-23-22 42 42 0 0 1 55-55 48 48 0 0 1 13 9 48 48 0 0 1 9 14 35 35 0 0 1 3 16 44 44 0 0 1-12 29 42 42 0 0 1-45 9z m547 167l-56 168a125 125 0 0 1-119 83h-296a125 125 0 0 1-119-83l-56-170a125 125 0 0 1-94-120v-167a125 125 0 0 1 84-117v-49a42 42 0 0 1 83 0v41h500v-41a42 42 0 0 1 83 0v49a125 125 0 0 1 84 117v167a125 125 0 0 1-94 120z m-511 141a42 42 0 0 0 40 29h296a42 42 0 0 0 42-29l44-138h-468z m521-430a42 42 0 0 0-41-41h-584a42 42 0 0 0-41 41v167a42 42 0 0 0 41 42h584a42 42 0 0 0 41-42z m-140 122a38 38 0 0 1-23-22 42 42 0 0 1 54-55 38 38 0 0 1 23 23 35 35 0 0 1 3 16 44 44 0 0 1-12 29 42 42 0 0 1-45 9z m-151 3h-84a42 42 0 0 1 0-83h84a42 42 0 0 1 0 83z" horiz-adv-x="1000" />

<glyph glyph-name="caret-right" unicode="&#xe860;" d="M813 386l-584 337a42 42 0 0 1-41 0 42 42 0 0 1-21-36v-674a42 42 0 0 1 21-36 42 42 0 0 1 41 0l584 337a42 42 0 0 1 0 72z m-563-301v530l458-265z" horiz-adv-x="1000" />

<glyph glyph-name="celsius" unicode="&#xe861;" d="M875 58h-250a125 125 0 0 0-125 125v334a125 125 0 0 0 125 125h250a42 42 0 0 1 0 83h-250a208 208 0 0 1-208-208v-334a208 208 0 0 1 208-208h250a42 42 0 0 1 0 83z m-667 667a125 125 0 1 1 125-125 125 125 0 0 1-125 125z m0-167a42 42 0 1 0 42 42 42 42 0 0 0-42-42z" horiz-adv-x="1000" />

<glyph glyph-name="channel-add" unicode="&#xe862;" d="M750 558h42v-41a42 42 0 0 1 83 0v41h42a42 42 0 0 1 0 84h-42v41a42 42 0 0 1-83 0v-41h-42a42 42 0 0 1 0-84z m83-375a125 125 0 0 1-72-23l-102 60a156 156 0 0 1 8 47 167 167 0 0 1-125 161v96a125 125 0 1 1-84 0v-96a167 167 0 0 1-125-161 156 156 0 0 1 8-47l-102-60a125 125 0 0 1-72 23 125 125 0 1 1 125-125 125 125 0 0 1-5 34l96 57a167 167 0 0 1 235 0l95-57a125 125 0 1 1 120 91z m-666-166a42 42 0 1 0 41 41 42 42 0 0 0-41-41z m333 666a42 42 0 1 0-42-41 42 42 0 0 0 42 41z m0-500a83 83 0 1 0 83 84 83 83 0 0 0-83-84z m333-166a42 42 0 1 0 42 41 42 42 0 0 0-42-41z" horiz-adv-x="1000" />

<glyph glyph-name="channel" unicode="&#xe863;" d="M833 183a125 125 0 0 1-72-23l-102 60a156 156 0 0 1 8 47 167 167 0 0 1-125 161v96a125 125 0 1 1-84 0v-96a167 167 0 0 1-125-161 156 156 0 0 1 8-47l-102-60a125 125 0 0 1-72 23 125 125 0 1 1 125-125 125 125 0 0 1-5 34l96 57a167 167 0 0 1 235 0l95-57a125 125 0 1 1 120 91z m-666-166a42 42 0 1 0 41 41 42 42 0 0 0-41-41z m333 666a42 42 0 1 0-42-41 42 42 0 0 0 42 41z m0-500a83 83 0 1 0 83 84 83 83 0 0 0-83-84z m333-166a42 42 0 1 0 42 41 42 42 0 0 0-42-41z" horiz-adv-x="1000" />

<glyph glyph-name="chart-bar-alt" unicode="&#xe864;" d="M875 17h-708v83h125a42 42 0 0 1 0 83h-125v84h458a42 42 0 0 1 0 83h-458v83h291a42 42 0 0 1 0 84h-291v83h625a42 42 0 0 1 0 83h-625v42a42 42 0 0 1-84 0v-750a42 42 0 0 1 42-42h750a42 42 0 0 1 0 84z" horiz-adv-x="1000" />

<glyph glyph-name="chart-bar" unicode="&#xe865;" d="M875 17h-42v625a42 42 0 0 1-83 0v-625h-83v291a42 42 0 0 1-84 0v-291h-83v458a42 42 0 0 1-83 0v-458h-84v125a42 42 0 0 1-83 0v-125h-83v708a42 42 0 0 1-84 0v-750a42 42 0 0 1 42-42h750a42 42 0 0 1 0 84z" horiz-adv-x="1000" />

<glyph glyph-name="chart-down" unicode="&#xe866;" d="M875 392a42 42 0 0 1-42-42v-108l-262 263a42 42 0 0 1-59 0l-137-138-220 221a42 42 0 0 1-60-59l250-250a42 42 0 0 1 60 0l137 137 233-233h-108a42 42 0 0 1 0-83h208a42 42 0 0 1 16 3 42 42 0 0 1 22 23 42 42 0 0 1 4 16v208a42 42 0 0 1-42 42z" horiz-adv-x="1000" />

<glyph glyph-name="chart-growth" unicode="&#xe867;" d="M875 17h-42v625a42 42 0 0 1-83 0v-625h-83v458a42 42 0 0 1-84 0v-458h-83v291a42 42 0 0 1-83 0v-291h-84v125a42 42 0 0 1-83 0v-125h-83v708a42 42 0 0 1-84 0v-750a42 42 0 0 1 42-42h750a42 42 0 0 1 0 84z" horiz-adv-x="1000" />

<glyph glyph-name="chart-line" unicode="&#xe868;" d="M292 183a63 63 0 0 1 62 63 32 32 0 0 1 0 6l116 116 10 0 10 0 67-67s0-2 0-3a63 63 0 1 1 125 0v3l151 153h0a63 63 0 1 1-62 63 32 32 0 0 1 0-7l-151-150h-6l-72 73a62 62 0 0 1-125 0l-125-125h0a63 63 0 0 1 0-125z m562-166h-708v708a42 42 0 0 1-83 0v-750a42 42 0 0 1 41-42h750a42 42 0 0 1 0 84z" horiz-adv-x="1000" />

<glyph glyph-name="chart-pie-alt" unicode="&#xe869;" d="M792 350h-292v292c0 25-17 41-42 41-208 0-375-166-375-375s167-375 375-375 375 167 375 375c0 25-16 42-41 42z m-292-329c-158-25-308 87-329 246-25 158 87 308 246 329v-288c0-25 16-41 41-41h288c-17-129-117-229-246-246z m125 746c-25 0-42-17-42-42v-250c0-25 17-42 42-42h250c25 0 42 17 42 42 0 163-129 292-292 292z m42-250v162c83-16 146-79 162-162h-162z" horiz-adv-x="1000" />

<glyph glyph-name="chart-pie" unicode="&#xe86a;" d="M500 767a417 417 0 1 1 205-779l3 0 2 0a417 417 0 0 1-210 779z m42-87a333 333 0 0 0 288-288h-288z m-42-663a333 333 0 0 0-42 663v-330a45 45 0 0 1 3-15l0-3 0-3 167-286a325 325 0 0 0-128-26z m201 68l-129 223h258a333 333 0 0 0-129-223z" horiz-adv-x="1000" />

<glyph glyph-name="chart" unicode="&#xe86b;" d="M500 600a42 42 0 0 1-42-42v-416a42 42 0 0 1 84 0v416a42 42 0 0 1-42 42z m-208-250a42 42 0 0 1-42-42v-166a42 42 0 0 1 83 0v166a42 42 0 0 1-41 42z m416 83a42 42 0 0 1-41-41v-250a42 42 0 0 1 83 0v250a42 42 0 0 1-42 41z m84 334h-584a125 125 0 0 1-125-125v-584a125 125 0 0 1 125-125h584a125 125 0 0 1 125 125v584a125 125 0 0 1-125 125z m41-709a42 42 0 0 0-41-41h-584a42 42 0 0 0-41 41v584a42 42 0 0 0 41 41h584a42 42 0 0 0 41-41z" horiz-adv-x="1000" />

<glyph glyph-name="chat-bubble-user" unicode="&#xe86c;" d="M608 379a135 135 0 0 1 29 84 137 137 0 0 1-274 0 135 135 0 0 1 30-84 208 208 0 0 1-84-96 42 42 0 1 1 77-33 125 125 0 0 0 114 76h0a125 125 0 0 0 115-76 42 42 0 0 1 38-25 45 45 0 0 1 16 3 42 42 0 0 1 22 55 208 208 0 0 1-83 96z m-108 31h0a54 54 0 1 0 54 53 54 54 0 0 0-54-53z m250 357h-500a125 125 0 0 1-125-125v-459a125 125 0 0 1 125-125h108l112-113a42 42 0 0 1 30-12 42 42 0 0 1 27 10l134 115h89a125 125 0 0 1 125 125v459a125 125 0 0 1-125 125z m42-584a42 42 0 0 0-42-41h-104a42 42 0 0 1-27-10l-117-100-97 98a42 42 0 0 1-30 12h-125a42 42 0 0 0-42 41v459a42 42 0 0 0 42 41h500a42 42 0 0 0 42-41z" horiz-adv-x="1000" />

<glyph glyph-name="chat" unicode="&#xe86d;" d="M750 767h-500a125 125 0 0 1-125-125v-459a125 125 0 0 1 125-125h108l112-113a42 42 0 0 1 30-12 42 42 0 0 1 27 10l134 115h89a125 125 0 0 1 125 125v459a125 125 0 0 1-125 125z m42-584a42 42 0 0 0-42-41h-104a42 42 0 0 1-27-10l-117-100-97 98a42 42 0 0 1-30 12h-125a42 42 0 0 0-42 41v459a42 42 0 0 0 42 41h500a42 42 0 0 0 42-41z" horiz-adv-x="1000" />

<glyph glyph-name="check" unicode="&#xe86e;" d="M780 550a42 42 0 0 1-60 0l-310-311-130 131a42 42 0 1 1-60-62l160-160a42 42 0 0 1 60 0l340 340a42 42 0 0 1 0 62z" horiz-adv-x="1000" />

<glyph glyph-name="clipboard-alt" unicode="&#xe86f;" d="M625 267h-250a42 42 0 0 1 0-84h250a42 42 0 0 1 0 84z m0 166h-167a42 42 0 0 1 0-83h167a42 42 0 0 1 0 83z m83 250h-49a125 125 0 0 1-117 84h-84a125 125 0 0 1-117-84h-49a125 125 0 0 1-125-125v-500a125 125 0 0 1 125-125h416a125 125 0 0 1 125 125v500a125 125 0 0 1-125 125z m-291-41a42 42 0 0 0 41 41h84a42 42 0 0 0 41-41v-42h-166z m333-584a42 42 0 0 0-42-41h-416a42 42 0 0 0-42 41v500a42 42 0 0 0 42 42h41v-42a42 42 0 0 1 42-41h250a42 42 0 0 1 42 41v42h41a42 42 0 0 0 42-42z" horiz-adv-x="1000" />

<glyph glyph-name="clipboard-blank" unicode="&#xe870;" d="M708 683h-41a83 83 0 0 1-84 84h-166a83 83 0 0 1-84-84h-41a125 125 0 0 1-125-125v-500a125 125 0 0 1 125-125h416a125 125 0 0 1 125 125v500a125 125 0 0 1-125 125z m-291 0h166v-41h0v-42h-166v83z m333-625a42 42 0 0 0-42-41h-416a42 42 0 0 0-42 41v500a42 42 0 0 0 42 42h41a83 83 0 0 1 84-83h166a83 83 0 0 1 84 83h41a42 42 0 0 0 42-42z" horiz-adv-x="1000" />

<glyph glyph-name="clipboard-notes" unicode="&#xe871;" d="M542 267h-167a42 42 0 0 1 0-84h167a42 42 0 0 1 0 84z m166 416h-49a125 125 0 0 1-117 84h-84a125 125 0 0 1-117-84h-49a125 125 0 0 1-125-125v-500a125 125 0 0 1 125-125h416a125 125 0 0 1 125 125v500a125 125 0 0 1-125 125z m-291-41a42 42 0 0 0 41 41h84a42 42 0 0 0 41-41v-42h-166z m333-584a42 42 0 0 0-42-41h-416a42 42 0 0 0-42 41v500a42 42 0 0 0 42 42h41v-42a42 42 0 0 1 42-41h250a42 42 0 0 1 42 41v42h41a42 42 0 0 0 42-42z m-125 375h-250a42 42 0 0 1 0-83h250a42 42 0 0 1 0 83z" horiz-adv-x="1000" />

<glyph glyph-name="clock-eight" unicode="&#xe872;" d="M500 600a42 42 0 0 1-42-42v-182l-101-51a42 42 0 1 1 38-75l124 63a42 42 0 0 1 23 37v208a42 42 0 0 1-42 42z m0 167a417 417 0 1 1 417-417 417 417 0 0 1-417 417z m0-750a333 333 0 1 0 333 333 334 334 0 0 0-333-333z" horiz-adv-x="1000" />

<glyph glyph-name="clock-nine" unicode="&#xe873;" d="M500 600a42 42 0 0 1-42-42v-166h-83a42 42 0 0 1 0-84h125a42 42 0 0 1 42 42v208a42 42 0 0 1-42 42z m0 167a417 417 0 1 1 417-417 417 417 0 0 1-417 417z m0-750a333 333 0 1 0 333 333 334 334 0 0 0-333-333z" horiz-adv-x="1000" />

<glyph glyph-name="clock-three" unicode="&#xe874;" d="M625 392h-83v166a42 42 0 0 1-84 0v-208a42 42 0 0 1 42-42h125a42 42 0 0 1 0 84z m-125 375a417 417 0 1 1 417-417 417 417 0 0 1-417 417z m0-750a333 333 0 1 0 333 333 334 334 0 0 0-333-333z" horiz-adv-x="1000" />

<glyph glyph-name="cloud-bookmark" unicode="&#xe875;" d="M625 392h-208a42 42 0 0 1-42-42v-333a42 42 0 0 1 65-35l81 54 79-52a42 42 0 0 1 25-9 42 42 0 0 1 18 4 42 42 0 0 1 24 38v333a42 42 0 0 1-42 42z m-42-297l-39 26a42 42 0 0 1-46 0l-40-26v213h125z m185 454a292 292 0 0 1-557-79 167 167 0 0 1 39-328 42 42 0 0 1 0 83 83 83 0 0 0 0 167 42 42 0 0 1 42 41 208 208 0 0 0 405 67 42 42 0 0 1 33-27 125 125 0 0 0 41-231 42 42 0 1 1 42-72 208 208 0 0 1 104 180 208 208 0 0 1-149 199z" horiz-adv-x="1000" />

<glyph glyph-name="cloud-check" unicode="&#xe876;" d="M595 259l-137-137-53 53a42 42 0 0 1-60 0 42 42 0 0 1 0-58l84-84a42 42 0 0 1 59 0l167 167a42 42 0 0 1 0 59 42 42 0 0 1-60 0z m173 244a292 292 0 0 1-557-79 167 167 0 0 1-16-319 42 42 0 1 1 27 78 83 83 0 0 0-55 80 83 83 0 0 0 83 83 42 42 0 0 1 42 42 208 208 0 0 0 405 66 42 42 0 0 1 33-27 125 125 0 0 0 10-244 42 42 0 0 1 10-83l10 0a208 208 0 0 1 8 401z" horiz-adv-x="1000" />

<glyph glyph-name="cloud-data-connection" unicode="&#xe877;" d="M875 79h-257a125 125 0 0 1-76 76v133h132a180 180 0 0 1 54 354 250 250 0 0 1-475-68 146 146 0 0 1 39-286h166v-133a125 125 0 0 1-75-76h-258a42 42 0 0 1 0-83h258a125 125 0 0 1 235 0h257a42 42 0 0 1 0 83z m-583 292a63 63 0 0 0 0 125 42 42 0 0 1 41 42 167 167 0 0 0 325 53 42 42 0 0 1 32-28 96 96 0 0 0 81-95 98 98 0 0 0-97-97z m208-375a42 42 0 1 0 42 42 42 42 0 0 0-42-42z" horiz-adv-x="1000" />

<glyph glyph-name="cloud-heart" unicode="&#xe878;" d="M768 528a292 292 0 0 1-557-78 167 167 0 0 1-16-320 47 47 0 0 1 13-2 42 42 0 0 1 14 84 83 83 0 0 0-55 76 83 83 0 0 0 83 83 42 42 0 0 1 42 42 208 208 0 0 0 405 67 42 42 0 0 1 33-28 125 125 0 0 0 41-231 42 42 0 1 1 42-72 208 208 0 0 1 104 180 208 208 0 0 1-149 199z m-268-213a123 123 0 0 1-143-22 122 122 0 0 1 0-172l113-113a42 42 0 0 1 60 0l113 113a122 122 0 0 1 0 172 123 123 0 0 1-143 22z m83-135l-83-83-83 83a37 37 0 0 0-12 28 37 37 0 0 0 12 27 38 38 0 0 0 54 0 42 42 0 0 1 59 0 39 39 0 0 0 54 0 37 37 0 0 0 11-27 37 37 0 0 0-12-28z" horiz-adv-x="1000" />

<glyph glyph-name="cloud-lock" unicode="&#xe879;" d="M768 570a292 292 0 0 1-557-79 167 167 0 0 1-16-319 47 47 0 0 1 13-2 42 42 0 0 1 14 83 83 83 0 0 0-55 76 83 83 0 0 0 83 84 42 42 0 0 1 42 41 208 208 0 0 0 405 67 42 42 0 0 1 33-28 125 125 0 0 0 41-230 42 42 0 1 1 42-73 208 208 0 0 1 104 181 208 208 0 0 1-149 199z m-143-375v51a125 125 0 0 1-250 0v-49a125 125 0 0 1 42-243h166a125 125 0 0 1 42 243z m-167 51a42 42 0 0 0 84 0v-42h-84z m125-208h-166a42 42 0 0 0 0 83h166a42 42 0 0 0 0-83z" horiz-adv-x="1000" />

<glyph glyph-name="cloud-redo" unicode="&#xe87a;" d="M625 329a42 42 0 0 1-38-25 167 167 0 1 1 23-266 42 42 0 1 1-55 62 83 83 0 0 0-55-21 83 83 0 1 0 42 156h-9a42 42 0 0 1 0-83h92a42 42 0 0 1 42 42v94a42 42 0 0 1-42 41z m143 199a292 292 0 0 1-557-78 167 167 0 0 1-16-320 47 47 0 0 1 13-2 42 42 0 0 1 14 84 83 83 0 0 0-55 76 83 83 0 0 0 83 83 42 42 0 0 1 42 42 208 208 0 0 0 405 67 42 42 0 0 1 33-28 125 125 0 0 0 41-231 42 42 0 1 1 42-72 208 208 0 0 1 104 180 208 208 0 0 1-149 199z" horiz-adv-x="1000" />

<glyph glyph-name="cloud-shield" unicode="&#xe87b;" d="M768 549a292 292 0 0 1-557-79 167 167 0 0 1-16-319 47 47 0 0 1 13-2 42 42 0 0 1 14 84 83 83 0 0 0-55 75 83 83 0 0 0 83 84 42 42 0 0 1 42 41 208 208 0 0 0 405 67 42 42 0 0 1 33-27 125 125 0 0 0 41-231 42 42 0 1 1 42-72 208 208 0 0 1 104 180 208 208 0 0 1-149 199z m-152-185a114 114 0 0 0-91 20 42 42 0 0 1-50 0 113 113 0 0 0-91-20 42 42 0 0 1-35-8 42 42 0 0 1-16-32v-141a193 193 0 0 1 77-154l65-48a42 42 0 0 1 50 0l65 49a192 192 0 0 1 77 153v141a42 42 0 0 1-16 32 42 42 0 0 1-35 8z m-33-181a109 109 0 0 0-41-83l-42-30-42 30a109 109 0 0 0-41 83v95a195 195 0 0 1 83 23 195 195 0 0 1 83-23z" horiz-adv-x="1000" />

<glyph glyph-name="cloud-times" unicode="&#xe87c;" d="M768 508a292 292 0 0 1-557-79 167 167 0 0 1 39-329 42 42 0 0 1 0 83 83 83 0 0 0 0 167 42 42 0 0 1 42 42 208 208 0 0 0 405 67 42 42 0 0 1 33-28 125 125 0 0 0 10-243 42 42 0 0 1 20-81 208 208 0 0 1 8 401z m-155-253a42 42 0 0 1-59 0l-54-55-54 55a42 42 0 0 1-59-60l54-53-54-54a42 42 0 0 1 0-59 42 42 0 0 1 59 0l54 54 54-54a42 42 0 0 1 59 0 42 42 0 0 1 0 59l-54 54 54 53a42 42 0 0 1 0 60z" horiz-adv-x="1000" />

<glyph glyph-name="cloud-unlock" unicode="&#xe87d;" d="M583 204h-125v42a42 42 0 0 0 79 21 42 42 0 0 1 57-14 42 42 0 0 1 14 55 128 128 0 0 1-19 25 125 125 0 0 1-89 38 125 125 0 0 1-125-125v-49a125 125 0 0 1 42-243h166a125 125 0 0 1 0 250z m0-166h-166a42 42 0 0 0 0 83h166a42 42 0 0 0 0-83z m185 532a292 292 0 0 1-557-79 167 167 0 0 1-16-319 47 47 0 0 1 13-2 42 42 0 0 1 14 83 83 83 0 0 0-55 76 83 83 0 0 0 83 84 42 42 0 0 1 42 41 208 208 0 0 0 405 67 42 42 0 0 1 33-28 125 125 0 0 0 41-230 42 42 0 1 1 42-73 208 208 0 0 1 104 181 208 208 0 0 1-149 199z" horiz-adv-x="1000" />

<glyph glyph-name="cloud-upload" unicode="&#xe87e;" d="M768 508a292 292 0 0 1-557-79 167 167 0 0 1 39-329 42 42 0 0 1 0 83 83 83 0 0 0 0 167 42 42 0 0 1 42 42 208 208 0 0 0 405 67 42 42 0 0 1 33-28 125 125 0 0 0 10-243 42 42 0 0 1 20-81 208 208 0 0 1 8 401z m-238-87a42 42 0 0 1-14 9 42 42 0 0 1-32 0 42 42 0 0 1-14-9l-125-125a42 42 0 0 1 60-59l53 54v-233a42 42 0 0 1 84 0v233l53-54a42 42 0 0 1 60 0 42 42 0 0 1 0 59z" horiz-adv-x="1000" />

<glyph glyph-name="cloud" unicode="&#xe87f;" d="M768 466a292 292 0 0 1-557-79 167 167 0 0 1 39-329h458a208 208 0 0 1 60 408z m-60-324h-458a83 83 0 0 0 0 166 42 42 0 0 1 42 42 208 208 0 0 0 405 67 42 42 0 0 1 33-27 125 125 0 0 0-22-248z" horiz-adv-x="1000" />

<glyph glyph-name="code-branch" unicode="&#xe880;" d="M708 598a125 125 0 0 1-48-241 83 83 0 0 0-77-51h-166a163 163 0 0 1-84-23v239a125 125 0 1 1-83 0v-349a125 125 0 1 1 90-2 83 83 0 0 0 77 52h166a167 167 0 0 1 163 131 125 125 0 0 1-38 244z m-416 83a42 42 0 1 0-42-42 42 42 0 0 0 42 42z m0-667a42 42 0 1 0 41 42 42 42 0 0 0-41-42z m416 417a42 42 0 1 0 42 42 42 42 0 0 0-42-42z" horiz-adv-x="1000" />

<glyph glyph-name="cog" unicode="&#xe881;" d="M888 452l-78 26 37 75a42 42 0 0 1-8 47l-89 89a42 42 0 0 1-48 8l-74-37-26 78a42 42 0 0 1-39 29h-125a42 42 0 0 1-40-29l-26-78-74 37a42 42 0 0 1-48-8l-89-89a42 42 0 0 1-8-48l37-74-78-26a42 42 0 0 1-29-39v-125a42 42 0 0 1 29-40l78-26-37-74a42 42 0 0 1 8-48l89-89a42 42 0 0 1 48-8l74 37 26-78a42 42 0 0 1 40-29h125a42 42 0 0 1 40 29l26 78 74-37a42 42 0 0 1 47 8l89 89a42 42 0 0 1 8 48l-37 74 78 26a42 42 0 0 1 29 40v125a42 42 0 0 1-29 39z m-55-134l-50-17a83 83 0 0 1-48-118l24-47-46-46-46 25a83 83 0 0 1-117-48l-16-50h-66l-17 50a83 83 0 0 1-118 48l-47-24-46 46 25 46a83 83 0 0 1-48 118l-50 17v65l50 16a83 83 0 0 1 48 118l-24 46 46 46 46-24a83 83 0 0 1 118 48l17 50h65l16-50a83 83 0 0 1 118-48l47 24 46-46-25-46a83 83 0 0 1 48-117l50-16z m-333 199a167 167 0 1 1 167-167 167 167 0 0 1-167 167z m0-250a83 83 0 1 0 83 83 83 83 0 0 0-83-83z" horiz-adv-x="1000" />

<glyph glyph-name="comment-add" unicode="&#xe882;" d="M208 517a42 42 0 0 1 84 0v41h41a42 42 0 0 1 0 84h-41v41a42 42 0 0 1-84 0v-41h-41a42 42 0 0 1 0-84h41z m542 125h-250a42 42 0 0 1 0-84h250a42 42 0 0 0 42-41v-405l-66 60a42 42 0 0 1-28 11h-365a42 42 0 0 0-41 42v125a42 42 0 0 1-84 0v-125a125 125 0 0 1 125-125h349l125-114a42 42 0 0 1 26-11 46 46 0 0 1 17 3 42 42 0 0 1 25 39v500a125 125 0 0 1-125 125z" horiz-adv-x="1000" />

<glyph glyph-name="comment-alt-block" unicode="&#xe883;" d="M792 600h-167a42 42 0 0 1 0-83h167a42 42 0 0 0 41-42v-405l-65 60a42 42 0 0 1-28 12h-365a42 42 0 0 0-42 41v42a42 42 0 0 1-83 0v-42a125 125 0 0 1 125-125h348l125-113a42 42 0 0 1 27-12 46 46 0 0 1 17 4 42 42 0 0 1 25 38v500a125 125 0 0 1-125 125z m-353-189a208 208 0 1 1-147-61 208 208 0 0 1 147 61z m-272 147a125 125 0 0 0 125 125 125 125 0 0 0 53-12l-167-167a125 125 0 0 0-11 54z m237 54a125 125 0 0 0 13-54 125 125 0 0 0-179-112z" horiz-adv-x="1000" />

<glyph glyph-name="comment-alt-check" unicode="&#xe884;" d="M282 469l227 226a42 42 0 1 1-59 60l-197-197-78 77a42 42 0 0 1-59-60l107-106a42 42 0 0 1 59 0z m489 131h-229a42 42 0 0 1 0-83h229a42 42 0 0 0 42-42v-405l-66 60a42 42 0 0 1-28 12h-365a42 42 0 0 0-41 41v146a42 42 0 0 1-84 0v-146a125 125 0 0 1 125-125h349l125-113a42 42 0 0 1 28-12 46 46 0 0 1 17 4 42 42 0 0 1 25 38v500a125 125 0 0 1-127 125z" horiz-adv-x="1000" />

<glyph glyph-name="comment-alt-dots" unicode="&#xe885;" d="M500 475a42 42 0 1 1 42-42 42 42 0 0 1-42 42z m292 292h-584a125 125 0 0 1-125-125v-417a125 125 0 0 1 125-125h483l154-155a42 42 0 0 1 30-12 35 35 0 0 1 16 4 42 42 0 0 1 26 38v667a125 125 0 0 1-125 125z m41-692l-95 96a42 42 0 0 1-30 12h-500a42 42 0 0 0-41 42v417a42 42 0 0 0 41 41h584a42 42 0 0 0 41-41z m-500 400a42 42 0 1 1 42-42 42 42 0 0 1-42 42z m334 0a42 42 0 1 1 41-42 42 42 0 0 1-41 42z" horiz-adv-x="1000" />

<glyph glyph-name="comment-alt-heart" unicode="&#xe886;" d="M500 585a128 128 0 0 1-147-22 125 125 0 0 1 0-176l117-120a42 42 0 0 1 60 0l118 118a125 125 0 0 1 0 176 128 128 0 0 1-148 24z m88-140l-88-88-88 88a42 42 0 0 0 0 60 42 42 0 0 0 58 0 42 42 0 0 1 60 0 42 42 0 0 0 58 0 42 42 0 0 0 0-60z m204 322h-584a125 125 0 0 1-125-125v-417a125 125 0 0 1 125-125h483l154-155a42 42 0 0 1 30-12 35 35 0 0 1 16 4 42 42 0 0 1 26 38v667a125 125 0 0 1-125 125z m41-692l-95 96a42 42 0 0 1-30 12h-500a42 42 0 0 0-41 42v417a42 42 0 0 0 41 41h584a42 42 0 0 0 41-41z" horiz-adv-x="1000" />

<glyph glyph-name="comment-alt-lines" unicode="&#xe887;" d="M542 392h-250a42 42 0 0 1 0-84h250a42 42 0 0 1 0 84z m166 166h-416a42 42 0 0 1 0-83h416a42 42 0 0 1 0 83z m84 209h-584a125 125 0 0 1-125-125v-417a125 125 0 0 1 125-125h483l154-155a42 42 0 0 1 30-12 35 35 0 0 1 16 4 42 42 0 0 1 26 38v667a125 125 0 0 1-125 125z m41-692l-95 96a42 42 0 0 1-30 12h-500a42 42 0 0 0-41 42v417a42 42 0 0 0 41 41h584a42 42 0 0 0 41-41z" horiz-adv-x="1000" />

<glyph glyph-name="comment-alt-lock" unicode="&#xe888;" d="M500 433v84a125 125 0 0 1-83 117v49a125 125 0 0 1-250 0v-49a125 125 0 0 1-84-117v-84a125 125 0 0 1 125-125h167a125 125 0 0 1 125 125z m-250 250a42 42 0 0 0 83 0v-41h-83z m-83-250v84a42 42 0 0 0 41 41h167a42 42 0 0 0 42-41v-84a42 42 0 0 0-42-41h-167a42 42 0 0 0-41 41z m625 125h-167a42 42 0 0 1 0-83h167a42 42 0 0 0 41-42v-405l-65 61a42 42 0 0 1-28 11h-365a42 42 0 0 0-42 42v41a42 42 0 0 1-83 0v-41a125 125 0 0 1 125-125h348l125-114a42 42 0 0 1 27-11 46 46 0 0 1 17 3 42 42 0 0 1 25 38v500a125 125 0 0 1-125 125z" horiz-adv-x="1000" />

<glyph glyph-name="comment-alt-message" unicode="&#xe889;" d="M708 558h-416a42 42 0 0 1 0-83h416a42 42 0 0 1 0 83z m0-166h-416a42 42 0 0 1 0-84h416a42 42 0 0 1 0 84z m84 375h-584a125 125 0 0 1-125-125v-417a125 125 0 0 1 125-125h483l154-155a42 42 0 0 1 30-12 35 35 0 0 1 16 4 42 42 0 0 1 26 38v667a125 125 0 0 1-125 125z m41-692l-95 96a42 42 0 0 1-30 12h-500a42 42 0 0 0-41 42v417a42 42 0 0 0 41 41h584a42 42 0 0 0 41-41z" horiz-adv-x="1000" />

<glyph glyph-name="comment-alt-notes" unicode="&#xe88a;" d="M292 558a42 42 0 1 1 41-41 42 42 0 0 1-41 41z m0-166a42 42 0 1 1 41-42 42 42 0 0 1-41 42z m416 0h-250a42 42 0 0 1 0-84h250a42 42 0 0 1 0 84z m0 166h-250a42 42 0 0 1 0-83h250a42 42 0 0 1 0 83z m84 209h-584a125 125 0 0 1-125-125v-417a125 125 0 0 1 125-125h483l154-155a42 42 0 0 1 30-12 35 35 0 0 1 16 4 42 42 0 0 1 26 38v667a125 125 0 0 1-125 125z m41-692l-95 96a42 42 0 0 1-30 12h-500a42 42 0 0 0-41 42v417a42 42 0 0 0 41 41h584a42 42 0 0 0 41-41z" horiz-adv-x="1000" />

<glyph glyph-name="comment-alt-plus" unicode="&#xe88b;" d="M625 475h-83v83a42 42 0 0 1-84 0v-83h-83a42 42 0 0 1 0-83h83v-84a42 42 0 0 1 84 0v84h83a42 42 0 0 1 0 83z m167 292h-584a125 125 0 0 1-125-125v-417a125 125 0 0 1 125-125h483l154-155a42 42 0 0 1 30-12 35 35 0 0 1 16 4 42 42 0 0 1 26 38v667a125 125 0 0 1-125 125z m41-692l-95 96a42 42 0 0 1-30 12h-500a42 42 0 0 0-41 42v417a42 42 0 0 0 41 41h584a42 42 0 0 0 41-41z" horiz-adv-x="1000" />

<glyph glyph-name="comment-alt-slash" unicode="&#xe88c;" d="M444 600h264a42 42 0 0 0 42-42v-264a42 42 0 1 1 83 0v264a125 125 0 0 1-125 125h-264a42 42 0 0 1 0-83z m461-595l-750 750a42 42 0 0 1-60-60l84-83a125 125 0 0 1-12-54v-500a42 42 0 0 1 26-38 35 35 0 0 1 15-3 42 42 0 0 1 30 12l112 113h300l195-197a42 42 0 0 1 60 0 42 42 0 0 1 0 60z m-572 220a42 42 0 0 1-29-12l-54-54v382l316-316z" horiz-adv-x="1000" />

<glyph glyph-name="comment-alt-verify" unicode="&#xe88d;" d="M655 588l-221-221-89 88a42 42 0 1 1-58-58l118-118a42 42 0 0 1 29-12 42 42 0 0 1 29 12l250 250a42 42 0 0 1 0 59 42 42 0 0 1-58 0z m137 179h-584a125 125 0 0 1-125-125v-417a125 125 0 0 1 125-125h483l154-155a42 42 0 0 1 30-12 35 35 0 0 1 16 4 42 42 0 0 1 26 38v667a125 125 0 0 1-125 125z m41-692l-95 96a42 42 0 0 1-30 12h-500a42 42 0 0 0-41 42v417a42 42 0 0 0 41 41h584a42 42 0 0 0 41-41z" horiz-adv-x="1000" />

<glyph glyph-name="comment-dots" unicode="&#xe88e;" d="M333 392a42 42 0 1 1 42-42 42 42 0 0 1-42 42z m167 0a42 42 0 1 1 42-42 42 42 0 0 1-42 42z m167 0a42 42 0 1 1 41-42 42 42 0 0 1-41 42z m-167 375a417 417 0 0 1-417-417 412 412 0 0 1 95-264l-84-83a42 42 0 0 1-9-46 42 42 0 0 1 40-24h375a417 417 0 0 1 0 834z m0-750h-275l39 38a42 42 0 0 1 13 30 42 42 0 0 1-13 29 333 333 0 1 0 236-97z" horiz-adv-x="1000" />

<glyph glyph-name="comment-lines" unicode="&#xe88f;" d="M708 475h-416a42 42 0 0 1 0-83h416a42 42 0 0 1 0 83z m-166-167h-250a42 42 0 0 1 0-83h250a42 42 0 0 1 0 83z m-42 459a417 417 0 0 1-417-417 412 412 0 0 1 95-264l-84-83a42 42 0 0 1-9-46 42 42 0 0 1 40-24h375a417 417 0 0 1 0 834z m0-750h-275l39 38a42 42 0 0 1 0 59 333 333 0 1 0 236-97z" horiz-adv-x="1000" />

<glyph glyph-name="comments-alt" unicode="&#xe890;" d="M792 517h-42v125a125 125 0 0 1-125 125h-417a125 125 0 0 1-125-125v-500a42 42 0 0 1 26-39 35 35 0 0 1 16-3 42 42 0 0 1 30 12l117 118h61v-60a125 125 0 0 1 125-125h289l98-100a42 42 0 0 1 30-12 35 35 0 0 1 16 4 42 42 0 0 1 26 38v417a125 125 0 0 1-125 125z m-459-125v-79h-78a42 42 0 0 1-30-12l-58-59v400a42 42 0 0 0 41 41h417a42 42 0 0 0 42-41v-125h-209a125 125 0 0 1-125-125z m500-317l-41 42a42 42 0 0 1-30 13h-304a42 42 0 0 0-41 41v221a42 42 0 0 0 41 41h334a42 42 0 0 0 41-41z" horiz-adv-x="1000" />

<glyph glyph-name="comparison" unicode="&#xe891;" d="M875 17h-708v22l208 209 158-159a42 42 0 0 1 59 0l313 313a42 42 0 0 1 0 59 42 42 0 0 1-59 0l-283-283-158 158a42 42 0 0 1-59 0l-179-179v216l208 208 117-117a42 42 0 0 1 58 0l200 200 91-91a42 42 0 0 1 59 59l-121 120a42 42 0 0 1-59 0l-200-200-116 117a42 42 0 0 1-59 0l-178-179v235a42 42 0 0 1-84 0v-750a42 42 0 0 1 42-42h750a42 42 0 0 1 0 84z" horiz-adv-x="1000" />

<glyph glyph-name="compress-alt-left" unicode="&#xe892;" d="M438 621a42 42 0 0 1-42-42v-66l-241 242a42 42 0 0 1-60-60l242-241h-66a42 42 0 0 1 0-83h167a42 42 0 0 1 15 3 42 42 0 0 1 23 23 42 42 0 0 1 3 16v166a42 42 0 0 1-41 42z m467-616l-242 241h66a42 42 0 0 1 0 83h-166a42 42 0 0 1-16-3 42 42 0 0 1-23-23 42 42 0 0 1-3-15v-167a42 42 0 0 1 83 0v66l241-242a42 42 0 0 1 60 0 42 42 0 0 1 0 60z" horiz-adv-x="1000" />

<glyph glyph-name="compress-alt" unicode="&#xe893;" d="M905 755a42 42 0 0 1-60 0l-241-242v66a42 42 0 0 1-83 0v-166a42 42 0 0 1 3-16 42 42 0 0 1 23-23 42 42 0 0 1 16-3h166a42 42 0 0 1 0 83h-66l242 241a42 42 0 0 1 0 60z m-452-429a42 42 0 0 1-15 3h-167a42 42 0 0 1 0-83h66l-242-241a42 42 0 0 1 0-60 42 42 0 0 1 60 0l241 242v-66a42 42 0 0 1 83 0v167a42 42 0 0 1-3 15 42 42 0 0 1-23 23z" horiz-adv-x="1000" />

<glyph glyph-name="compress-arrows" unicode="&#xe894;" d="M433 305a42 42 0 0 1-16 3h-167a42 42 0 0 1 0-83h66l-221-220a42 42 0 0 1 0-60 42 42 0 0 1 60 0l220 221v-66a42 42 0 0 1 83 0v167a42 42 0 0 1-3 16 42 42 0 0 1-22 22z m-16 337a42 42 0 0 1-42-42v-66l-220 221a42 42 0 0 1-60-60l221-220h-66a42 42 0 0 1 0-83h167a42 42 0 0 1 16 3 42 42 0 0 1 22 23 42 42 0 0 1 3 15v167a42 42 0 0 1-41 42z m151-247a42 42 0 0 1 15-3h167a42 42 0 0 1 0 83h-66l221 220a42 42 0 1 1-60 60l-220-221v66a42 42 0 0 1-83 0v-167a42 42 0 0 1 3-15 42 42 0 0 1 23-23z m116-170h66a42 42 0 0 1 0 83h-167a42 42 0 0 1-15-3 42 42 0 0 1-23-22 42 42 0 0 1-3-16v-167a42 42 0 0 1 83 0v66l220-221a42 42 0 0 1 60 0 42 42 0 0 1 0 60z" horiz-adv-x="1000" />

<glyph glyph-name="compress-lines" unicode="&#xe895;" d="M708 17h-166v149l33-33a42 42 0 0 1 59 0 42 42 0 0 1 0 59l-104 104a42 42 0 0 1-14 9 42 42 0 0 1-32 0 42 42 0 0 1-14-9l-104-104a42 42 0 0 1 59-59l33 33v-149h-166a42 42 0 0 1 0-84h416a42 42 0 0 1 0 84z m-416 666h166v-149l-33 33a42 42 0 1 1-59-59l104-104a42 42 0 0 1 14-9 39 39 0 0 1 32 0 42 42 0 0 1 14 9l104 104a42 42 0 1 1-59 59l-33-33v149h166a42 42 0 0 1 0 84h-416a42 42 0 0 1 0-84z" horiz-adv-x="1000" />

<glyph glyph-name="heart-1" unicode="&#xe896;" d="M500-79q-14 0-25 10l-348 336q-5 5-15 15t-31 37-38 54-30 67-13 77q0 123 71 192t196 70q34 0 70-12t67-33 54-38 42-38q20 20 42 38t54 38 67 33 70 12q125 0 196-70t71-192q0-123-128-251l-347-335q-10-10-25-10z" horiz-adv-x="1000" />

<glyph glyph-name="compress-v" unicode="&#xe897;" d="M530 296a42 42 0 0 1-14 9 42 42 0 0 1-32 0 42 42 0 0 1-14-9l-104-104a42 42 0 0 1 59-59l33 33v-191a42 42 0 0 1 84 0v191l33-33a42 42 0 0 1 59 0 42 42 0 0 1 0 59z m-60 108a42 42 0 0 1 14-9 39 39 0 0 1 32 0 42 42 0 0 1 14 9l104 104a42 42 0 1 1-59 59l-33-33v191a42 42 0 0 1-84 0v-191l-33 33a42 42 0 1 1-59-59z" horiz-adv-x="1000" />

<glyph glyph-name="compress" unicode="&#xe898;" d="M667 475h208a42 42 0 0 1 0 83h-167v167a42 42 0 0 1-83 0v-208a42 42 0 0 1 42-42z m-334-250h-208a42 42 0 0 1 0-83h167v-167a42 42 0 0 1 83 0v208a42 42 0 0 1-42 42z m0 542a42 42 0 0 1-41-42v-167h-167a42 42 0 0 1 0-83h208a42 42 0 0 1 42 42v208a42 42 0 0 1-42 42z m542-542h-208a42 42 0 0 1-42-42v-208a42 42 0 0 1 83 0v167h167a42 42 0 0 1 0 83z" horiz-adv-x="1000" />

<glyph glyph-name="confused" unicode="&#xe899;" d="M375 475a42 42 0 1 1 42-42 42 42 0 0 1-42 42z m236-190l-175-62a42 42 0 0 1 14-81 42 42 0 0 1 14 2l175 63a42 42 0 1 1-28 78z m14 190a42 42 0 1 1 42-42 42 42 0 0 1-42 42z m-125 292a417 417 0 1 1 417-417 417 417 0 0 1-417 417z m0-750a333 333 0 1 0 333 333 333 333 0 0 0-333-333z" horiz-adv-x="1000" />

<glyph glyph-name="copy-alt" unicode="&#xe89a;" d="M667 17h-334a125 125 0 0 0-125 125v416a42 42 0 0 1-83 0v-416a208 208 0 0 1 208-209h334a42 42 0 0 1 0 84z m208 461a55 55 0 0 1-2 11l0 4a45 45 0 0 1-8 11h0l-250 250h0a45 45 0 0 1-12 8l-4 0-13 5h-169a125 125 0 0 1-125-125v-417a125 125 0 0 1 125-125h333a125 125 0 0 1 125 125v250s0 0 0 3z m-250 147l108-108h-66a42 42 0 0 0-42 41z m167-400a42 42 0 0 0-42-42h-333a42 42 0 0 0-42 42v417a42 42 0 0 0 42 41h125v-125a125 125 0 0 1 125-125h125z" horiz-adv-x="1000" />

<glyph glyph-name="copy" unicode="&#xe89b;" d="M875 478a55 55 0 0 1-2 11l0 4a45 45 0 0 1-8 11h0l-250 250h0a45 45 0 0 1-12 8 13 13 0 0 1-4 0 37 37 0 0 1-14 5h-168a125 125 0 0 1-125-125v-42h-42a125 125 0 0 1-125-125v-417a125 125 0 0 1 125-125h333a125 125 0 0 1 125 125v42h42a125 125 0 0 1 125 125v250s0 0 0 3z m-250 147l108-108h-66a42 42 0 0 0-42 41z m0-567a42 42 0 0 0-42-41h-333a42 42 0 0 0-42 41v417a42 42 0 0 0 42 42h42v-292a125 125 0 0 1 125-125h208z m167 167a42 42 0 0 0-42-42h-333a42 42 0 0 0-42 42v417a42 42 0 0 0 42 41h125v-125a125 125 0 0 1 125-125h125z" horiz-adv-x="1000" />

<glyph glyph-name="copyright" unicode="&#xe89c;" d="M458 475h84a42 42 0 0 0 41-42 42 42 0 0 1 84 0 125 125 0 0 1-125 125h-84a125 125 0 0 1-125-125v-166a125 125 0 0 1 125-125h84a125 125 0 0 1 125 125 42 42 0 0 1-84 0 42 42 0 0 0-41-42h-84a42 42 0 0 0-41 42v166a42 42 0 0 0 41 42z m42 292a417 417 0 1 1 417-417 417 417 0 0 1-417 417z m0-750a333 333 0 1 0 333 333 333 333 0 0 0-333-333z" horiz-adv-x="1000" />

<glyph glyph-name="corner-down-left" unicode="&#xe89d;" d="M779 767a42 42 0 0 1-42-42v-432a83 83 0 0 0-83-83h-334l122 121a42 42 0 0 1-57 61l-193-194a50 50 0 0 1-9-14 42 42 0 0 1 0-32 42 42 0 0 1 9-14l193-193a42 42 0 0 1 29-12 42 42 0 0 1 30 12 42 42 0 0 1 0 60l-122 121h333a167 167 0 0 1 167 167v432a42 42 0 0 1-43 42z" horiz-adv-x="1000" />

<glyph glyph-name="corner-down-right-alt" unicode="&#xe89e;" d="M872 324a42 42 0 0 1-9 14l-125 125a42 42 0 0 1-59-59l54-54h-400a42 42 0 0 0-41 42v166a42 42 0 0 1-84 0v-166a125 125 0 0 1 125-125h400l-54-54a42 42 0 0 1 0-59 42 42 0 0 1 59 0l125 125a42 42 0 0 1 9 14 42 42 0 0 1 0 31z" horiz-adv-x="1000" />

<glyph glyph-name="corner-up-left-alt" unicode="&#xe89f;" d="M708 454h-399l54 54a42 42 0 0 1-59 59l-125-125a42 42 0 0 1-9-14 42 42 0 0 1 0-31 42 42 0 0 1 9-14l125-125a42 42 0 0 1 59 0 42 42 0 0 1 0 59l-54 54h399a42 42 0 0 0 42-42v-166a42 42 0 0 1 83 0v166a125 125 0 0 1-125 125z" horiz-adv-x="1000" />

<glyph glyph-name="coronavirus" unicode="&#xe8a0;" d="M396 475a63 63 0 1 1 62-62 63 63 0 0 1-62 62z m-21-208a42 42 0 1 1 42-42 42 42 0 0 1-42 42z m250 250a42 42 0 1 1 42-42 42 42 0 0 1-42 42z m-21-167a63 63 0 1 1 63-62 63 63 0 0 1-63 62z m313 42h-44a373 373 0 0 1-80 192l31 31a42 42 0 0 1-59 59l-31-31a373 373 0 0 1-192 80v44a42 42 0 0 1-84 0v-44a373 373 0 0 1-192-80l-31 31a42 42 0 0 1-59-59l31-31a373 373 0 0 1-79-192h-45a42 42 0 0 1 0-84h45a373 373 0 0 1 79-192l-31-31a42 42 0 1 1 59-59l31 31a373 373 0 0 1 192-80v-44a42 42 0 0 1 84 0v44a373 373 0 0 1 192 80l31-31a42 42 0 0 1 59 59l-31 31a373 373 0 0 1 80 192h44a42 42 0 0 1 0 84z m-167-84h38a292 292 0 0 0-246-246v80a42 42 0 0 1-84 0v-80a292 292 0 0 0-246 246h38a42 42 0 0 1 0 84h-38a292 292 0 0 0 246 246v-80a42 42 0 0 1 84 0v80a292 292 0 0 0 246-246h-38a42 42 0 0 1 0-84z" horiz-adv-x="1000" />

<glyph glyph-name="create-dashboard" unicode="&#xe8a1;" d="M417 308h-250a42 42 0 0 1-42-41v-250a42 42 0 0 1 42-42h250a42 42 0 0 1 41 42v250a42 42 0 0 1-41 41z m-42-250h-167v167h167z m458 667h-250a42 42 0 0 1-41-42v-250a42 42 0 0 1 41-41h250a42 42 0 0 1 42 41v250a42 42 0 0 1-42 42z m-41-250h-167v167h167z m41-292h-83v84a42 42 0 0 1-83 0v-84h-84a42 42 0 0 1 0-83h84v-83a42 42 0 0 1 83 0v83h83a42 42 0 0 1 0 83z m-416 542h-250a42 42 0 0 1-42-42v-250a42 42 0 0 1 42-41h250a42 42 0 0 1 41 41v250a42 42 0 0 1-41 42z m-42-250h-167v167h167z" horiz-adv-x="1000" />

<glyph glyph-name="credit-card-search" unicode="&#xe8a2;" d="M833 118a179 179 0 1 1-153-86 182 182 0 0 1 94 26l71-72a42 42 0 0 1 60 0 42 42 0 0 1 0 59z m-83 24a99 99 0 0 0-136 0 97 97 0 0 0 0 136 96 96 0 0 0 136 0 97 97 0 0 0 0-136z m42 583h-584a125 125 0 0 1-125-125v-375a125 125 0 0 1 125-125h167a42 42 0 0 1 0 83h-167a42 42 0 0 0-41 42v250h666v-42a42 42 0 0 1 84 0v167a125 125 0 0 1-125 125z m41-167h-666v42a42 42 0 0 0 41 42h584a42 42 0 0 0 41-42z m-416-166h-125a42 42 0 0 1 0-84h125a42 42 0 0 1 0 84z" horiz-adv-x="1000" />

<glyph glyph-name="credit-card" unicode="&#xe8a3;" d="M292 225h125a42 42 0 0 1 0 83h-125a42 42 0 0 1 0-83z m500 417h-584a125 125 0 0 1-125-125v-375a125 125 0 0 1 125-125h584a125 125 0 0 1 125 125v375a125 125 0 0 1-125 125z m41-500a42 42 0 0 0-41-42h-584a42 42 0 0 0-41 42v250h666z m0 333h-666v42a42 42 0 0 0 41 41h584a42 42 0 0 0 41-41z" horiz-adv-x="1000" />

<glyph glyph-name="crop-alt-rotate-left" unicode="&#xe8a4;" d="M405 171a42 42 0 0 1-60-59l13-12h-25a125 125 0 0 0-125 125v83a42 42 0 0 1-83 0v-83a208 208 0 0 1 208-208h25l-13-12a42 42 0 0 1 0-60 42 42 0 0 1 60 0l83 84a42 42 0 0 1 0 59z m428 179h-41v292a42 42 0 0 1-42 41h-292v42a42 42 0 0 1-83 0v-42h-42a42 42 0 0 1 0-83h42v-292a42 42 0 0 1 42-41h291v-42a42 42 0 0 1 84 0v42h41a42 42 0 0 1 0 83z m-125 0h-250v250h250z" horiz-adv-x="1000" />

<glyph glyph-name="crop-alt-rotate-right" unicode="&#xe8a5;" d="M667 683h-25l13 12a42 42 0 1 1-60 60l-83-84a42 42 0 0 1 0-59l83-83a42 42 0 0 1 60 0 42 42 0 0 1 0 59l-13 12h25a125 125 0 0 0 125-125v-83a42 42 0 0 1 83 0v83a208 208 0 0 1-208 208z m0-583h-42v292a42 42 0 0 1-42 41h-291v42a42 42 0 0 1-84 0v-42h-41a42 42 0 0 1 0-83h41v-292a42 42 0 0 1 42-41h292v-42a42 42 0 0 1 83 0v42h42a42 42 0 0 1 0 83z m-125 0h-250v250h250z" horiz-adv-x="1000" />

<glyph glyph-name="crop-alt" unicode="&#xe8a6;" d="M792 183h-42v375a42 42 0 0 1-42 42h-375v42a42 42 0 0 1-83 0v-42h-42a42 42 0 0 1 0-83h42v-375a42 42 0 0 1 42-42h375v-42a42 42 0 0 1 83 0v42h42a42 42 0 0 1 0 83z m-125 0h-334v334h334z" horiz-adv-x="1000" />

<glyph glyph-name="crosshairs" unicode="&#xe8a7;" d="M875 392h-45a333 333 0 0 1-288 288v45a42 42 0 0 1-84 0v-45a333 333 0 0 1-288-288h-45a42 42 0 0 1 0-84h45a333 333 0 0 1 288-288v-45a42 42 0 0 1 84 0v45a333 333 0 0 1 288 288h45a42 42 0 0 1 0 84z m-375-292a250 250 0 1 0 250 250 250 250 0 0 0-250-250z m0 375a125 125 0 1 1 125-125 125 125 0 0 1-125 125z m0-167a42 42 0 1 0 42 42 42 42 0 0 0-42-42z" horiz-adv-x="1000" />

<glyph glyph-name="cube" unicode="&#xe8a8;" d="M853 543s0 0 0 3l-3 7a30 30 0 0 1-2 3 39 39 0 0 1-4 5l-4 3-7 4-312 192a42 42 0 0 1-44 0l-310-192-4-4-4-3a39 39 0 0 1-4-5 30 30 0 0 1-2-3l-3-7s0 0 0-3a48 48 0 0 1 0-11v-364a42 42 0 0 1 20-35l312-193h0a20 20 0 0 1 6-3s2 0 4 0a36 36 0 0 1 21 0s2 0 4 0a20 20 0 0 1 6 3h0l310 193a42 42 0 0 1 20 35v364a48 48 0 0 1 0 11z m-395-493l-229 141v266l229-141z m42 338l-233 144 233 144 233-144z m271-197l-229-141v266l229 141z" horiz-adv-x="1000" />

<glyph glyph-name="database" unicode="&#xe8a9;" d="M333 163a42 42 0 1 1 42-42 42 42 0 0 1-42 42z m167 604c-167 0-333-57-333-167v-500c0-110 166-167 333-167s333 57 333 167v500c0 110-166 167-333 167z m250-667c0-30-95-83-250-83s-250 53-250 83v136a548 548 0 0 1 250-53 548 548 0 0 1 250 53z m0 250c0-30-95-83-250-83s-250 53-250 83v136a548 548 0 0 1 250-53 548 548 0 0 1 250 53z m-250 167c-155 0-250 53-250 83s95 83 250 83 250-53 250-83-95-83-250-83z m-167-104a42 42 0 1 1 42-42 42 42 0 0 1-42 42z" horiz-adv-x="1000" />

<glyph glyph-name="cloud-exclamation" unicode="&#xe8aa;" d="M530 67a48 48 0 0 1-14 9 42 42 0 0 1-46-9 44 44 0 0 1-12-29 42 42 0 0 1 12-30 48 48 0 0 1 14-9 42 42 0 0 1 54 54 42 42 0 0 1-8 14z m-30 262a42 42 0 0 1-42-41v-125a42 42 0 0 1 84 0v125a42 42 0 0 1-42 41z m268 200a292 292 0 0 1-557-79 167 167 0 0 1 39-329h83a42 42 0 0 1 0 83h-83a83 83 0 0 0 0 167 42 42 0 0 1 42 42 208 208 0 0 0 405 67 42 42 0 0 1 33-28 125 125 0 0 0-22-248h-41a42 42 0 0 1 0-83h41a208 208 0 0 1 60 408z" horiz-adv-x="1000" />

<glyph glyph-name="cloud-question" unicode="&#xe8ab;" d="M768 508a292 292 0 0 1-557-79 167 167 0 0 1 39-329h83a42 42 0 0 1 0 83h-83a83 83 0 0 0 0 167 42 42 0 0 1 42 42 208 208 0 0 0 405 67 42 42 0 0 1 33-28 125 125 0 0 0 103-123 125 125 0 0 0-125-125 42 42 0 0 1 0-83 208 208 0 0 1 60 408z m-230-434a23 23 0 0 1-3 7l-5 7a48 48 0 0 1-14 9 42 42 0 0 1-46-9l-5-7a23 23 0 0 1-3-7 27 27 0 0 1-3-7 63 63 0 0 1 0-9 51 51 0 0 1 0-8 25 25 0 0 1 3-7 23 23 0 0 1 3-8l5-6a44 44 0 0 1 30-12 42 42 0 0 1 16 3 48 48 0 0 1 14 9l5 6a23 23 0 0 1 3 8 25 25 0 0 1 3 7 51 51 0 0 1 1 8 63 63 0 0 1 0 9 27 27 0 0 1-4 7z m-38 318a125 125 0 0 1-108-63 42 42 0 0 1 15-57 42 42 0 0 1 57 16 42 42 0 0 0 36 20 42 42 0 0 0 0-83 42 42 0 0 1 0-83 125 125 0 0 1 0 250z" horiz-adv-x="1000" />

<glyph glyph-name="desktop-alt" unicode="&#xe8ac;" d="M792 767h-584a125 125 0 0 1-125-125v-417a125 125 0 0 1 125-125h125v-83h-125a42 42 0 0 1 0-84h584a42 42 0 0 1 0 84h-125v83h125a125 125 0 0 1 125 125v417a125 125 0 0 1-125 125z m-209-750h-166v83h166z m250 208a42 42 0 0 0-41-42h-584a42 42 0 0 0-41 42v42h666z m0 125h-666v292a42 42 0 0 0 41 41h584a42 42 0 0 0 41-41z" horiz-adv-x="1000" />

<glyph glyph-name="desktop-cloud-alt" unicode="&#xe8ad;" d="M188 433h229a125 125 0 0 1 44 242 167 167 0 0 1-311-42 104 104 0 0 1 38-200z m0 125a42 42 0 0 1 41 42 83 83 0 0 0 162 27 42 42 0 0 1 33-28 42 42 0 0 0 34-41 42 42 0 0 0-41-41h-229a21 21 0 0 0 0 41z m604 209h-209a42 42 0 0 1 0-84h209a42 42 0 0 0 41-41v-292h-708a42 42 0 0 1-42-42v-83a125 125 0 0 1 125-125h125v-83h-125a42 42 0 0 1 0-84h584a42 42 0 0 1 0 84h-125v83h125a125 125 0 0 1 125 125v417a125 125 0 0 1-125 125z m-209-750h-166v83h166z m250 208a42 42 0 0 0-41-42h-584a42 42 0 0 0-41 42v42h666z" horiz-adv-x="1000" />

<glyph glyph-name="desktop" unicode="&#xe8ae;" d="M792 725h-584a125 125 0 0 1-125-125v-333a125 125 0 0 1 125-125h250v-84h-166a42 42 0 0 1 0-83h416a42 42 0 0 1 0 83h-166v84h250a125 125 0 0 1 125 125v333a125 125 0 0 1-125 125z m41-458a42 42 0 0 0-41-42h-584a42 42 0 0 0-41 42v333a42 42 0 0 0 41 42h584a42 42 0 0 0 41-42z" horiz-adv-x="1000" />

<glyph glyph-name="diary" unicode="&#xe8af;" d="M708 767h-500a42 42 0 0 1-41-42v-667a42 42 0 0 1 41-41h42v-42a42 42 0 0 1 42-42h0a42 42 0 0 1 41 42v42h375a125 125 0 0 1 125 125v500a125 125 0 0 1-125 125z m-125-667h-333v583h333z m167 42a42 42 0 0 0-42-42h-41v583h41a42 42 0 0 0 42-41z" horiz-adv-x="1000" />

<glyph glyph-name="direction" unicode="&#xe8b0;" d="M405 425l95 95 95-95a42 42 0 0 1 60 0 42 42 0 0 1 0 59l-125 125a42 42 0 0 1-60 0l-125-125a42 42 0 0 1 60-59z m190-191l-95-96-95 96a42 42 0 0 1-60-59l125-125a42 42 0 0 1 60 0l125 125a42 42 0 0 1-60 59z" horiz-adv-x="1000" />

<glyph glyph-name="dna" unicode="&#xe8b1;" d="M383 278a42 42 0 0 1-58 2 466 466 0 0 1-158-347 42 42 0 0 1 83 0 381 381 0 0 0 131 286 42 42 0 0 1 2 59z m424-193a453 453 0 0 1-67 125 596 596 0 0 1-154 140c93 60 247 192 247 417a42 42 0 0 1-83 0c0-225-191-341-250-371a559 559 0 0 0-112 79h112a42 42 0 0 1 0 83h-185a391 391 0 0 0-42 84h352a42 42 0 0 1 0 83h-372a339 339 0 0 0-3 42 42 42 0 0 1-83 0c0-316 304-450 317-455h0a539 539 0 0 0 129-87h-113a42 42 0 0 1 0-83h185a378 378 0 0 0 41-84h-351a42 42 0 0 1 0-83h373a344 344 0 0 0 2-42 42 42 0 0 1 83 0 438 438 0 0 1-9 92 385 385 0 0 1-17 60z" horiz-adv-x="1000" />

<glyph glyph-name="docker" unicode="&#xe8b2;" d="M367 483h75c4 0 8 5 8 9v62c0 4-4 9-8 9h-75c-4 0-9-5-9-9v-66c0 0 5-5 9-5z m100-95h75c4 0 8 4 8 8v67c0 4-4 8-8 8h-75c-4 0-9-4-9-8v-67c0-4 5-8 9-8z m0 95h75c4 0 8 5 8 9v62c-4 4-8 9-8 9h-75c-4 0-9-5-9-9v-66c0 0 5-5 9-5z m104-95h75c4 0 8 4 8 8v67c0 4-4 8-8 8h-75c-4 0-8-4-8-8v-67c0-4 4-8 8-8z m-104 191h75c4 0 8 4 8 9v62c0 4-4 8-8 8h-75c-4 0-9-4-9-8v-67c0-4 5-4 9-4z m-309-191h75c5 0 9 4 9 8v67c0 4-4 8-9 8h-75c-4 0-8-4-8-8v-67c4-4 8-8 8-8z m750 41c-20 13-45 21-66 17-13 0-25 0-34-4-8 37-29 71-58 87l-12 9-9-13c-12-8-21-25-25-46-8-33-4-66 13-91-21-9-42-13-63-17h-546c-12 0-25-13-25-25 0-50 9-96 25-142 17-46 46-83 84-108 58-29 121-42 183-38 33 0 67 5 100 9 46 8 92 25 133 50 34 21 63 46 92 75 38 46 67 96 88 154h8c33 0 67 12 92 33 12 9 20 21 25 38l4 8-9 4z m-645-41h70c5 0 9 4 9 8v67c0 4-4 8-9 8h-70c-5 0-9-4-9-8v-67c0-4 4-8 9-8z m0 95h70c5 0 9 5 9 9v62c0 4-4 9-9 9h-70c-5 0-9-5-9-9v-66c0 0 4-5 9-5z m104-95h75c4 0 8 4 8 8v67c0 4-4 8-8 8h-75c-4 0-9-4-9-8v-67c0-4 5-8 9-8z" horiz-adv-x="1000" />

<glyph glyph-name="document-layout-left" unicode="&#xe8b3;" d="M125 350h250a42 42 0 0 1 42 42v250a42 42 0 0 1-42 41h-250a42 42 0 0 1-42-41v-250a42 42 0 0 1 42-42z m42 250h166v-167h-166z m375-83h333a42 42 0 0 1 0 83h-333a42 42 0 0 1 0-83z m0-417h-417a42 42 0 0 1 0-83h417a42 42 0 0 1 0 83z m333 167h-750a42 42 0 0 1 0-84h750a42 42 0 0 1 0 84z m0 166h-333a42 42 0 0 1 0-83h333a42 42 0 0 1 0 83z" horiz-adv-x="1000" />

<glyph glyph-name="download-alt" unicode="&#xe8b4;" d="M345 296a42 42 0 0 1 0-59l125-125a42 42 0 0 1 60 0l125 125a42 42 0 0 1-60 59l-53-54v483a42 42 0 0 1-84 0v-483l-53 54a42 42 0 0 1-60 0z m405 179h-83a42 42 0 0 1 0-83h83a42 42 0 0 0 42-42v-292a42 42 0 0 0-42-41h-500a42 42 0 0 0-42 41v292a42 42 0 0 0 42 42h83a42 42 0 0 1 0 83h-83a125 125 0 0 1-125-125v-292a125 125 0 0 1 125-125h500a125 125 0 0 1 125 125v292a125 125 0 0 1-125 125z" horiz-adv-x="1000" />

<glyph glyph-name="edit-alt" unicode="&#xe8b5;" d="M208 100h177a42 42 0 0 1 30 12l288 289h0l118 116a42 42 0 0 1 0 59l-176 179a42 42 0 0 1-60 0l-117-118h0l-289-289a42 42 0 0 1-12-30v-176a42 42 0 0 1 41-42z m407 566l118-118-59-59-118 118z m-365-365l247 247 118-118-247-247h-118z m625-284h-750a42 42 0 0 1 0-84h750a42 42 0 0 1 0 84z" horiz-adv-x="1000" />

<glyph glyph-name="edit" unicode="&#xe8b6;" d="M875 350a42 42 0 0 1-42-42v-250a42 42 0 0 0-41-41h-584a42 42 0 0 0-41 41v584a42 42 0 0 0 41 41h250a42 42 0 0 1 0 84h-250a125 125 0 0 1-125-125v-584a125 125 0 0 1 125-125h584a125 125 0 0 1 125 125v250a42 42 0 0 1-42 42z m-625-32v-176a42 42 0 0 1 42-42h176a42 42 0 0 1 30 12l288 289h0l119 116a42 42 0 0 1 0 59l-177 179a42 42 0 0 1-59 0l-118-118h0l-289-289a42 42 0 0 1-12-30z m448 348l118-118-59-59-118 118z m-365-365l247 247 118-118-247-247h-118z" horiz-adv-x="1000" />

<glyph glyph-name="ellipsis-h" unicode="&#xe8b7;" d="M500 433a83 83 0 1 1 83-83 83 83 0 0 1-83 83z m-292 0a83 83 0 1 1 84-83 83 83 0 0 1-84 83z m584 0a83 83 0 1 1 83-83 83 83 0 0 1-83 83z" horiz-adv-x="1000" />

<glyph glyph-name="ellipsis-v" unicode="&#xe8b8;" d="M500 558a83 83 0 1 1-83 84 83 83 0 0 1 83-84z m0-416a83 83 0 1 1 83-84 83 83 0 0 1-83 84z m0 291a83 83 0 1 1 83-83 83 83 0 0 1-83 83z" horiz-adv-x="1000" />

<glyph glyph-name="enter" unicode="&#xe8b9;" d="M792 600a42 42 0 0 1-42-42v-166a42 42 0 0 0-42-42h-399l54 54a42 42 0 0 1-59 59l-125-125a42 42 0 0 1-9-14 42 42 0 0 1 0-31 42 42 0 0 1 9-14l125-125a42 42 0 0 1 59 0 42 42 0 0 1 0 59l-54 54h399a125 125 0 0 1 125 125v166a42 42 0 0 1-41 42z" horiz-adv-x="1000" />

<glyph glyph-name="envelope-check" unicode="&#xe8ba;" d="M679 487a42 42 0 0 1 59 0l167 167a42 42 0 1 1-60 59l-137-138-53 55a42 42 0 0 1-60-60z m196 30a42 42 0 0 1-42-42v-375a42 42 0 0 0-41-42h-584a42 42 0 0 0-41 42v400l245-246a125 125 0 0 1 88-36 128 128 0 0 1 90 37l71 72a42 42 0 1 1-59 59l-73-73a42 42 0 0 0-58 0l-246 245h233a42 42 0 0 1 0 84h-250a125 125 0 0 1-125-125v-417a125 125 0 0 1 125-125h584a125 125 0 0 1 125 125v375a42 42 0 0 1-42 42z" horiz-adv-x="1000" />

<glyph glyph-name="envelope-upload" unicode="&#xe8bb;" d="M854 267a42 42 0 0 1-41-42v-167a42 42 0 0 0-42-41h-583a42 42 0 0 0-42 41v400l245-245a125 125 0 0 1 177 0l68 68a42 42 0 1 1-59 59l-69-68a42 42 0 0 0-58 0l-245 245h274a42 42 0 0 1 0 83h-291a125 125 0 0 1-125-125v-417a125 125 0 0 1 125-125h583a125 125 0 0 1 125 125v167a42 42 0 0 1-42 42z m71 363l-125 125a42 42 0 0 1-13 8 42 42 0 0 1-32 0 42 42 0 0 1-14-8l-125-125a42 42 0 0 1 59-60l54 55v-233a42 42 0 0 1 84 0v233l53-55a42 42 0 0 1 59 0 42 42 0 0 1 0 60z" horiz-adv-x="1000" />

<glyph glyph-name="envelope" unicode="&#xe8bc;" d="M792 683h-584a125 125 0 0 1-125-125v-416a125 125 0 0 1 125-125h584a125 125 0 0 1 125 125v416a125 125 0 0 1-125 125z m-17-83l-245-245a42 42 0 0 0-60 0l-245 245z m58-458a42 42 0 0 0-41-42h-584a42 42 0 0 0-41 42v399l245-245a125 125 0 0 1 176 0l245 245z" horiz-adv-x="1000" />

<glyph glyph-name="estate" unicode="&#xe8bd;" d="M833 517h0l-250 219a125 125 0 0 1-166 0l-250-219a125 125 0 0 1-42-94v-365a125 125 0 0 1 125-125h500a125 125 0 0 1 125 125v365a125 125 0 0 1-42 94z m-250-500h-166v208a42 42 0 0 0 41 42h84a42 42 0 0 0 41-42z m209 41a42 42 0 0 0-42-41h-83v208a125 125 0 0 1-125 125h-84a125 125 0 0 1-125-125v-208h-83a42 42 0 0 0-42 41v365a42 42 0 0 0 15 31l250 219a42 42 0 0 0 55 0l250-219a42 42 0 0 0 14-31z" horiz-adv-x="1000" />

<glyph glyph-name="exchange-alt" unicode="&#xe8be;" d="M905 463l-167 167a42 42 0 0 1-59-60l96-95h-483a42 42 0 0 1 0-83h583a42 42 0 0 1 38 26 42 42 0 0 1-8 45z m-197-155h-583a42 42 0 0 1-38-25 42 42 0 0 1 8-46l167-167a42 42 0 0 1 59 0 42 42 0 0 1 0 60l-96 95h483a42 42 0 0 1 0 83z" horiz-adv-x="1000" />

<glyph glyph-name="exchange" unicode="&#xe8bf;" d="M750 433a42 42 0 0 1-42 42h-483l96 95a42 42 0 0 1-59 60l-167-167a42 42 0 0 1-8-45 42 42 0 0 1 38-26h583a42 42 0 0 1 42 41z m163-150a42 42 0 0 1-38 25h-583a42 42 0 0 1 0-83h483l-96-95a42 42 0 0 1 0-60 42 42 0 0 1 59 0l167 167a42 42 0 0 1 8 46z" horiz-adv-x="1000" />

<glyph glyph-name="exclamation" unicode="&#xe8c0;" d="M500 267a42 42 0 0 1 42 41v250a42 42 0 0 1-84 0v-250a42 42 0 0 1 42-41z m0-167a52 52 0 1 1-52 52 52 52 0 0 1 52-52z" horiz-adv-x="1000" />

<glyph glyph-name="exit" unicode="&#xe8c1;" d="M167 350a42 42 0 0 1 41-42h317l-96-95a42 42 0 0 1 0-59 42 42 0 0 1 59 0l167 166a42 42 0 0 1 8 14 42 42 0 0 1 0 32 42 42 0 0 1-8 14l-167 166a42 42 0 1 1-59-59l96-95h-317a42 42 0 0 1-41-42z m541 417h-416a125 125 0 0 1-125-125v-125a42 42 0 0 1 83 0v125a42 42 0 0 0 42 41h416a42 42 0 0 0 42-41v-584a42 42 0 0 0-42-41h-416a42 42 0 0 0-42 41v125a42 42 0 0 1-83 0v-125a125 125 0 0 1 125-125h416a125 125 0 0 1 125 125v584a125 125 0 0 1-125 125z" horiz-adv-x="1000" />

<glyph glyph-name="expand-alt" unicode="&#xe8c2;" d="M408 317l-241-242v67a42 42 0 0 1-84 0v-167a42 42 0 0 1 4-16 42 42 0 0 1 22-22 42 42 0 0 1 16-4h167a42 42 0 0 1 0 84h-67l242 241a42 42 0 0 1-59 59z m505 424a42 42 0 0 1-22 22 42 42 0 0 1-16 4h-167a42 42 0 0 1 0-84h67l-242-241a42 42 0 0 1 0-59 42 42 0 0 1 59 0l241 242v-67a42 42 0 0 1 84 0v167a42 42 0 0 1-4 16z" horiz-adv-x="1000" />

<glyph glyph-name="expand-arrows-alt" unicode="&#xe8c3;" d="M387 296l-220-221v67a42 42 0 0 1-84 0v-167a42 42 0 0 1 4-16 42 42 0 0 1 22-22 42 42 0 0 1 16-4h167a42 42 0 0 1 0 84h-67l221 220a42 42 0 0 1-59 59z m-162 387h67a42 42 0 0 1 0 84h-167a42 42 0 0 1-16-4 42 42 0 0 1-22-22 42 42 0 0 1-4-16v-167a42 42 0 0 1 84 0v67l220-221a42 42 0 0 1 59 0 42 42 0 0 1 0 59z m650-500a42 42 0 0 1-42-41v-67l-220 221a42 42 0 0 1-59-59l221-220h-67a42 42 0 0 1 0-84h167a42 42 0 0 1 16 4 42 42 0 0 1 22 22 42 42 0 0 1 4 16v167a42 42 0 0 1-42 41z m38 558a42 42 0 0 1-22 22 42 42 0 0 1-16 4h-167a42 42 0 0 1 0-84h67l-221-220a42 42 0 0 1 0-59 42 42 0 0 1 59 0l220 221v-67a42 42 0 0 1 84 0v167a42 42 0 0 1-4 16z" horiz-adv-x="1000" />

<glyph glyph-name="expand-arrows" unicode="&#xe8c4;" d="M875 517a42 42 0 0 1 42 41v167a42 42 0 0 1-4 16 42 42 0 0 1-22 22 42 42 0 0 1-16 4h-167a42 42 0 0 1 0-84h67l-275-274-275 274h67a42 42 0 0 1 0 84h-167a42 42 0 0 1-16-4 42 42 0 0 1-22-22 42 42 0 0 1-4-16v-167a42 42 0 0 1 84 0v67l274-275-274-275v67a42 42 0 0 1-84 0v-167a42 42 0 0 1 4-16 42 42 0 0 1 22-22 42 42 0 0 1 16-4h167a42 42 0 0 1 0 84h-67l275 274 275-274h-67a42 42 0 0 1 0-84h167a42 42 0 0 1 16 4 42 42 0 0 1 22 22 42 42 0 0 1 4 16v167a42 42 0 0 1-84 0v-67l-274 275 274 275v-67a42 42 0 0 1 42-41z" horiz-adv-x="1000" />

<glyph glyph-name="expand-from-corner" unicode="&#xe8c5;" d="M458 350h-333a42 42 0 0 1-42-42v-333a42 42 0 0 1 42-42h333a42 42 0 0 1 42 42v333a42 42 0 0 1-42 42z m-41-333h-250v250h250z m496 724a42 42 0 0 1-22 22 42 42 0 0 1-16 4h-250a42 42 0 0 1 0-84h150l-221-220a42 42 0 0 1 0-59 42 42 0 0 1 59 0l220 221v-150a42 42 0 0 1 84 0v250a42 42 0 0 1-4 16z" horiz-adv-x="1000" />

<glyph glyph-name="expand-left" unicode="&#xe8c6;" d="M382 426a42 42 0 0 1 30 12 42 42 0 0 1 0 60l-187 185h67a42 42 0 0 1 0 84h-167a42 42 0 0 1-16-4 42 42 0 0 1-22-22 42 42 0 0 1-4-16v-167a42 42 0 0 1 84 0v67l186-187a42 42 0 0 1 29-12z m266 72a42 42 0 0 1-60 0l-235-236a42 42 0 0 1 0-59 42 42 0 0 1 29-13 42 42 0 0 1 30 13l236 235a42 42 0 0 1 0 60z m227-315a42 42 0 0 1-42-41v-67l-185 187a42 42 0 1 1-60-59l187-186h-67a42 42 0 0 1 0-84h167a42 42 0 0 1 16 4 42 42 0 0 1 22 22 42 42 0 0 1 4 16v167a42 42 0 0 1-42 41z" horiz-adv-x="1000" />

<glyph glyph-name="expand-right" unicode="&#xe8c7;" d="M354 263l-187-188v67c0 25-17 41-42 41s-42-16-42-41v-167c0-4 0-13 5-17 4-8 12-16 20-21 5-4 13-4 17-4h167c25 0 41 17 41 42s-16 42-41 42h-67l188 187c16 17 16 42 0 59-17 16-42 16-59 0z m550 491c0 0 0 0 0 0-8 9-21 13-29 13h-167c-25 0-41-17-41-42s16-42 41-42h67l-187-187c-17-17-17-42 0-58l0 0c8-9 16-13 29-13 12 0 21 4 29 13l187 187v-67c0-25 17-41 42-41s42 16 42 41v167c0 8-4 21-13 29z m-258-491l-233 233c-17 17-42 17-59 0-16-17-16-42 0-58l238-238c8-8 16-12 29-12 12 0 21 4 29 12 13 17 13 46-4 63 0 0 0 0 0 0z" horiz-adv-x="1000" />

<glyph glyph-name="export" unicode="&#xe8c8;" d="M363 529l95 96v-400a42 42 0 0 1 84 0v400l95-96a42 42 0 0 1 59 0 42 42 0 0 1 0 59l-166 167a42 42 0 0 1-14 8 42 42 0 0 1-32 0 42 42 0 0 1-14-8l-166-167a42 42 0 1 1 59-59z m512-262a42 42 0 0 1-42-42v-167a42 42 0 0 0-41-41h-584a42 42 0 0 0-41 41v167a42 42 0 0 1-84 0v-167a125 125 0 0 1 125-125h584a125 125 0 0 1 125 125v167a42 42 0 0 1-42 42z" horiz-adv-x="1000" />

<glyph glyph-name="external-link-alt" unicode="&#xe8c9;" d="M750 399a42 42 0 0 1-42-41v-300a42 42 0 0 0-41-41h-459a42 42 0 0 0-41 41v459a42 42 0 0 0 41 41h300a42 42 0 0 1 0 84h-300a125 125 0 0 1-125-125v-459a125 125 0 0 1 125-125h459a125 125 0 0 1 125 125v300a42 42 0 0 1-42 41z m163 342a42 42 0 0 1-22 22 42 42 0 0 1-16 4h-250a42 42 0 0 1 0-84h150l-430-428a42 42 0 0 1 0-60 42 42 0 0 1 60 0l428 430v-150a42 42 0 0 1 84 0v250a42 42 0 0 1-4 16z" horiz-adv-x="1000" />

<glyph glyph-name="eye-slash" unicode="&#xe8ca;" d="M456 597a289 289 0 0 0 44 3c133 0 257-95 330-250a635 635 0 0 0-38-68 42 42 0 0 1-7-23 42 42 0 0 1 78-21 657 657 0 0 1 50 96 42 42 0 0 1 0 33c-84 195-242 316-413 316a324 324 0 0 1-58-5 42 42 0 1 1 14-83z m-301 158a42 42 0 0 1-60-60l130-128a609 609 0 0 1-138-200 42 42 0 0 1 0-34c84-195 242-316 413-316a386 386 0 0 1 210 64l135-136a42 42 0 0 1 60 0 42 42 0 0 1 0 60z m265-383l102-102a75 75 0 0 0-22-3 83 83 0 0 0-83 83 75 75 0 0 0 3 22z m80-272c-132 0-257 95-329 250a504 504 0 0 0 112 158l74-75a167 167 0 0 1 226-226l67-65a302 302 0 0 0-150-42z" horiz-adv-x="1000" />

<glyph glyph-name="eye" unicode="&#xe8cb;" d="M913 367c-84 195-242 316-413 316s-329-121-413-316a42 42 0 0 1 0-34c84-195 242-316 413-316s329 121 413 316a42 42 0 0 1 0 34z m-413-267c-132 0-257 95-329 250 72 155 197 250 329 250s257-95 329-250c-72-155-197-250-329-250z m0 417a167 167 0 1 1 167-167 167 167 0 0 1-167 167z m0-250a83 83 0 1 0 83 83 83 83 0 0 0-83-83z" horiz-adv-x="1000" />

<glyph glyph-name="file-alt" unicode="&#xe8cc;" d="M375 433h42a42 42 0 0 1 0 84h-42a42 42 0 0 1 0-84z m0-83a42 42 0 0 1 0-83h250a42 42 0 0 1 0 83z m458 128a55 55 0 0 1-2 11l0 4a45 45 0 0 1-8 11h0l-250 250h0a45 45 0 0 1-12 8 13 13 0 0 1-3 0 37 37 0 0 1-14 5h-252a125 125 0 0 1-125-125v-584a125 125 0 0 1 125-125h416a125 125 0 0 1 125 125v417s0 0 0 3z m-250 147l108-108h-66a42 42 0 0 0-42 41z m167-567a42 42 0 0 0-42-41h-416a42 42 0 0 0-42 41v584a42 42 0 0 0 42 41h208v-125a125 125 0 0 1 125-125h125z m-125 125h-250a42 42 0 0 1 0-83h250a42 42 0 0 1 0 83z" horiz-adv-x="1000" />

<glyph glyph-name="file-blank" unicode="&#xe8cd;" d="M833 478a55 55 0 0 1-2 11l0 4a45 45 0 0 1-8 11h0l-250 250h0a45 45 0 0 1-12 8l-3 0a37 37 0 0 1-14 5h-252a125 125 0 0 1-125-125v-584a125 125 0 0 1 125-125h416a125 125 0 0 1 125 125v417s0 0 0 3z m-250 147l108-108h-66a42 42 0 0 0-42 41z m167-567a42 42 0 0 0-42-41h-416a42 42 0 0 0-42 41v584a42 42 0 0 0 42 41h208v-125a125 125 0 0 1 125-125h125z" horiz-adv-x="1000" />

<glyph glyph-name="file-block-alt" unicode="&#xe8ce;" d="M292 517a42 42 0 0 1 0-84h41a42 42 0 0 1 0 84z m208-500h-292a42 42 0 0 0-41 41v584a42 42 0 0 0 41 41h209v-125a125 125 0 0 1 125-125h125v-41a42 42 0 0 1 83 0v83s0 0 0 3a55 55 0 0 1-2 11l0 4a45 45 0 0 1-8 11h0l-250 250h0a45 45 0 0 1-12 8 13 13 0 0 1-4 0l-13 5h-253a125 125 0 0 1-125-125v-584a125 125 0 0 1 125-125h292a42 42 0 0 1 0 84z m0 608l108-108h-66a42 42 0 0 0-42 41z m368-407a171 171 0 0 1-236 0 167 167 0 1 1 236 0z m-201-118a83 83 0 0 0 83 83 87 87 0 0 0 21-3l-101-101a87 87 0 0 0-3 21z m142-59a83 83 0 0 0-80-21l101 101a87 87 0 0 0 3-21 83 83 0 0 0-24-59z m-351 59a42 42 0 0 1 0 83h-166a42 42 0 0 1 0-83z m84 250h-250a42 42 0 0 1 0-83h250a42 42 0 0 1 0 83z" horiz-adv-x="1000" />

<glyph glyph-name="file-bookmark-alt" unicode="&#xe8cf;" d="M313 433h41a42 42 0 0 1 0 84h-41a42 42 0 0 1 0-84z m166-250h-166a42 42 0 0 1 0-83h166a42 42 0 0 1 0 83z m0 167h-166a42 42 0 0 1 0-83h166a42 42 0 0 1 0 83z m289 109a42 42 0 0 1-9 46l-250 250h0a45 45 0 0 1-12 8 13 13 0 0 1-4 0l-11 4h-253a125 125 0 0 1-125-125v-584a125 125 0 0 1 125-125h250a42 42 0 0 1 0 84h-250a42 42 0 0 0-41 41v584a42 42 0 0 0 41 41h209v-125a125 125 0 0 1 125-125h166a42 42 0 0 1 39 26z m-205 58a42 42 0 0 0-42 41v67l108-108z m291-167h-208a42 42 0 0 1-42-42v-333a42 42 0 0 1 22-37 42 42 0 0 1 42 2l82 55 83-55a42 42 0 0 1 63 35v333a42 42 0 0 1-42 42z m-41-297l-40 27a42 42 0 0 1-46 0l-39-27v214h125z" horiz-adv-x="1000" />

<glyph glyph-name="file-check-alt" unicode="&#xe8d0;" d="M479 17h-250a42 42 0 0 0-41 41v584a42 42 0 0 0 41 41h209v-125a125 125 0 0 1 125-125h125v-208a42 42 0 0 1 83 0v250s0 0 0 3a55 55 0 0 1-3 11l0 4a45 45 0 0 1-8 11h0l-250 250h0a45 45 0 0 1-11 8 12 12 0 0 1-4 0 46 46 0 0 1-13 5h-253a125 125 0 0 1-125-125v-584a125 125 0 0 1 125-125h250a42 42 0 0 1 0 84z m42 608l108-108h-66a42 42 0 0 0-42 41z m-208-358h250a42 42 0 0 1 0 83h-250a42 42 0 0 1 0-83z m166-84h-166a42 42 0 0 1 0-83h166a42 42 0 0 1 0 83z m-166 250h41a42 42 0 0 1 0 84h-41a42 42 0 0 1 0-84z m571-262a42 42 0 0 1-59 0l-137-137-54 54a42 42 0 0 1-59-59l83-84a42 42 0 0 1 59 0l167 167a42 42 0 0 1 0 59z" horiz-adv-x="1000" />

<glyph glyph-name="file-check" unicode="&#xe8d1;" d="M833 478a55 55 0 0 1-2 11l0 4a45 45 0 0 1-8 11h0l-250 250h0a45 45 0 0 1-12 8 13 13 0 0 1-3 0 37 37 0 0 1-14 5h-252a125 125 0 0 1-125-125v-584a125 125 0 0 1 125-125h416a125 125 0 0 1 125 125v417s0 0 0 3z m-250 147l108-108h-66a42 42 0 0 0-42 41z m167-567a42 42 0 0 0-42-41h-416a42 42 0 0 0-42 41v584a42 42 0 0 0 42 41h208v-125a125 125 0 0 1 125-125h125z m-155 280l-137-138-53 55a42 42 0 0 1-60-60l84-83a42 42 0 0 1 59 0l167 167a42 42 0 0 1-60 59z" horiz-adv-x="1000" />

<glyph glyph-name="file-download-alt" unicode="&#xe8d2;" d="M333 517a42 42 0 0 1 0-84h42a42 42 0 0 1 0 84z m209-500h-292a42 42 0 0 0-42 41v584a42 42 0 0 0 42 41h208v-125a125 125 0 0 1 125-125h125v-83a42 42 0 0 1 84 0v125s0 0 0 3a55 55 0 0 1-3 11l0 4a45 45 0 0 1-8 11h0l-250 250h0a45 45 0 0 1-11 8 12 12 0 0 1-5 0 46 46 0 0 1-12 5h-253a125 125 0 0 1-125-125v-584a125 125 0 0 1 125-125h292a42 42 0 0 1 0 84z m0 608l108-108h-67a42 42 0 0 0-41 41z m41-275h-250a42 42 0 0 1 0-83h250a42 42 0 0 1 0 83z m280-262a42 42 0 0 1-59 0l-12-13v108a42 42 0 0 1-84 0v-108l-12 13a42 42 0 0 1-59-59l83-84a42 42 0 0 1 14-8 39 39 0 0 1 32 0 42 42 0 0 1 14 8l83 84a42 42 0 0 1 0 59z m-363 12a42 42 0 0 1 0 83h-167a42 42 0 0 1 0-83z" horiz-adv-x="1000" />

<glyph glyph-name="file-download" unicode="&#xe8d3;" d="M833 478a55 55 0 0 1-2 11l0 4a45 45 0 0 1-8 11h0l-250 250h0a45 45 0 0 1-12 8l-4 0a46 46 0 0 1-13 5h-252a125 125 0 0 1-125-125v-584a125 125 0 0 1 125-125h416a125 125 0 0 1 125 125v417s0 0 0 3z m-250 147l108-108h-66a42 42 0 0 0-42 41z m167-567a42 42 0 0 0-42-41h-416a42 42 0 0 0-42 41v584a42 42 0 0 0 42 41h208v-125a125 125 0 0 1 125-125h125z m-196 197l-12-13v108a42 42 0 0 1-84 0v-108l-12 13a42 42 0 0 1-59-60l83-83a42 42 0 0 1 14-9 39 39 0 0 1 32 0 42 42 0 0 1 14 9l83 83a42 42 0 0 1-59 60z" horiz-adv-x="1000" />

<glyph glyph-name="file-edit-alt" unicode="&#xe8d4;" d="M863 154l-101 101a42 42 0 0 1-59 0l-149-150a42 42 0 0 1-12-29v-101a42 42 0 0 1 41-42h101a42 42 0 0 1 30 12l149 150a42 42 0 0 1 0 59z m-196-137h-42v41l108 108 41-42z m-250 0h-167a42 42 0 0 0-42 41v584a42 42 0 0 0 42 41h208v-125a125 125 0 0 1 125-125h125v-41a42 42 0 0 1 84 0v83s0 0 0 3a55 55 0 0 1-3 11l0 4a45 45 0 0 1-8 11h0l-250 250h0a45 45 0 0 1-11 8 13 13 0 0 1-4 0l-13 5h-253a125 125 0 0 1-125-125v-584a125 125 0 0 1 125-125h167a42 42 0 0 1 0 84z m125 608l108-108h-67a42 42 0 0 0-41 41z m-209-358h250a42 42 0 0 1 0 83h-250a42 42 0 0 1 0-83z m0 166h42a42 42 0 0 1 0 84h-42a42 42 0 0 1 0-84z m84-250h-84a42 42 0 0 1 0-83h84a42 42 0 0 1 0 83z" horiz-adv-x="1000" />

<glyph glyph-name="file-import" unicode="&#xe8d5;" d="M458 17h-208a42 42 0 0 0-42 41v584a42 42 0 0 0 42 41h208v-125a125 125 0 0 1 125-125h125v-83a42 42 0 0 1 84 0v125s0 0 0 3a55 55 0 0 1-3 11l0 4a55 55 0 0 1-8 12h0l-250 250h0a55 55 0 0 1-12 8 13 13 0 0 1-4 0l-12 4h-253a125 125 0 0 1-125-125v-584a125 125 0 0 1 125-125h208a42 42 0 0 1 0 84z m84 608l108-108h-67a42 42 0 0 0-41 41z m250-400h-233l54 54a42 42 0 0 1-59 59l-125-125a48 48 0 0 1-9-14 42 42 0 0 1 0-31 39 39 0 0 1 9-14l125-125a42 42 0 0 1 59 0 42 42 0 0 1 0 59l-54 54h233a42 42 0 0 1 0 83z" horiz-adv-x="1000" />

<glyph glyph-name="file-landscape-alt" unicode="&#xe8d6;" d="M917 394a55 55 0 0 1-3 11l0 4a45 45 0 0 1-8 12h0l-250 250h0a45 45 0 0 1-11 8l-5 0a46 46 0 0 1-12 4h-420a125 125 0 0 1-125-125v-416a125 125 0 0 1 125-125h584a125 125 0 0 1 125 125v250s0 0 0 2z m-250 147l108-108h-67a42 42 0 0 0-41 42z m166-399a42 42 0 0 0-41-42h-584a42 42 0 0 0-41 42v416a42 42 0 0 0 41 42h375v-125a125 125 0 0 1 125-125h125z m-541 208h166a42 42 0 0 1 0 83h-166a42 42 0 0 1 0-83z m0-83a42 42 0 0 1 0-84h416a42 42 0 0 1 0 84z" horiz-adv-x="1000" />

<glyph glyph-name="file-landscape" unicode="&#xe8d7;" d="M917 394a55 55 0 0 1-3 11l0 4a45 45 0 0 1-8 12h0l-250 250h0a45 45 0 0 1-11 8l-5 0a46 46 0 0 1-12 4h-420a125 125 0 0 1-125-125v-416a125 125 0 0 1 125-125h584a125 125 0 0 1 125 125v250s0 0 0 2z m-250 147l108-108h-67a42 42 0 0 0-41 42z m166-399a42 42 0 0 0-41-42h-584a42 42 0 0 0-41 42v416a42 42 0 0 0 41 42h375v-125a125 125 0 0 1 125-125h125z" horiz-adv-x="1000" />

<glyph glyph-name="file-lock-alt" unicode="&#xe8d8;" d="M417 17h-209a42 42 0 0 0-41 41v584a42 42 0 0 0 41 41h209v-125a125 125 0 0 1 125-125h166a42 42 0 0 1 39 26 42 42 0 0 1-9 46l-250 250h0a45 45 0 0 1-12 8 13 13 0 0 1-3 0l-12 4h-253a125 125 0 0 1-125-125v-584a125 125 0 0 1 125-125h209a42 42 0 0 1 0 84z m83 608l108-108h-66a42 42 0 0 0-42 41z m42-317a42 42 0 0 1-42 42h-208a42 42 0 0 1 0-83h208a42 42 0 0 1 42 41z m-250 125h41a42 42 0 0 1 0 84h-41a42 42 0 0 1 0-84z m0-250a42 42 0 0 1 0-83h83a42 42 0 0 1 0 83z m541 35v7a125 125 0 0 1-250 0v-7a125 125 0 0 1-83-118v-42a125 125 0 0 1 125-125h167a125 125 0 0 1 125 125v42a125 125 0 0 1-84 118z m-125 49a42 42 0 0 0 42-42h-83a42 42 0 0 0 41 42z m125-209a42 42 0 0 0-41-41h-167a42 42 0 0 0-42 41v42a42 42 0 0 0 42 42h167a42 42 0 0 0 41-42z" horiz-adv-x="1000" />

<glyph glyph-name="file-network" unicode="&#xe8d9;" d="M875 58h-257a125 125 0 0 1-76 76v91h125a125 125 0 0 1 125 125v167s0 0 0 2a55 55 0 0 1-3 11l0 4a45 45 0 0 1-8 12h0l-250 250h0a45 45 0 0 1-11 8 13 13 0 0 1-4 0 37 37 0 0 1-14 4h-169a125 125 0 0 1-125-125v-333a125 125 0 0 1 125-125h125v-91a125 125 0 0 1-75-76h-258a42 42 0 0 1 0-83h258a125 125 0 0 1 235 0h257a42 42 0 0 1 0 83z m-333 608l108-108h-67a42 42 0 0 0-41 42z m-209-358a42 42 0 0 0-41 42v333a42 42 0 0 0 41 42h125v-125a125 125 0 0 1 125-125h125v-125a42 42 0 0 0-41-42z m167-333a42 42 0 1 0 42 42 42 42 0 0 0-42-42z" horiz-adv-x="1000" />

<glyph glyph-name="file-plus-alt" unicode="&#xe8da;" d="M833 100h-41v42a42 42 0 0 1-84 0v-42h-41a42 42 0 0 1 0-83h41v-42a42 42 0 0 1 84 0v42h41a42 42 0 0 1 0 83z m-291-83h-292a42 42 0 0 0-42 41v584a42 42 0 0 0 42 41h208v-125a125 125 0 0 1 125-125h125v-125a42 42 0 0 1 84 0v167s0 0 0 3a55 55 0 0 1-3 11l0 4a45 45 0 0 1-8 11h0l-250 250h0a45 45 0 0 1-11 8 12 12 0 0 1-5 0 46 46 0 0 1-12 5h-253a125 125 0 0 1-125-125v-584a125 125 0 0 1 125-125h292a42 42 0 0 1 0 84z m0 608l108-108h-67a42 42 0 0 0-41 41z m-209-108a42 42 0 0 1 0-84h42a42 42 0 0 1 0 84z m209-334h-209a42 42 0 0 1 0-83h209a42 42 0 0 1 0 83z m41 167h-250a42 42 0 0 1 0-83h250a42 42 0 0 1 0 83z" horiz-adv-x="1000" />

</font>
</defs>
</svg>
